%TF.GenerationSoftware,KiCad,Pcbnew,7.0.1*%
%TF.CreationDate,2023-04-06T23:33:11+08:00*%
%TF.ProjectId,Warehouse-on-STM32,57617265-686f-4757-9365-2d6f6e2d5354,rev?*%
%TF.SameCoordinates,Original*%
%TF.FileFunction,Drillmap*%
%TF.FilePolarity,Positive*%
%FSLAX45Y45*%
G04 Gerber Fmt 4.5, Leading zero omitted, Abs format (unit mm)*
G04 Created by KiCad (PCBNEW 7.0.1) date 2023-04-06 23:33:11*
%MOMM*%
%LPD*%
G01*
G04 APERTURE LIST*
%ADD10C,0.100000*%
%ADD11C,0.200000*%
%ADD12C,0.010000*%
%ADD13C,0.020000*%
%ADD14C,0.050000*%
%ADD15C,0.080000*%
G04 APERTURE END LIST*
D10*
X15200000Y-13500000D02*
G75*
G03*
X15300000Y-13400000I0J100000D01*
G01*
X10000000Y-10100000D02*
X10000000Y-13400000D01*
X10000000Y-13400000D02*
G75*
G03*
X10100000Y-13500000I100000J0D01*
G01*
X15300000Y-10100000D02*
G75*
G03*
X15200000Y-10000000I-100000J0D01*
G01*
X10100000Y-10000000D02*
G75*
G03*
X10000000Y-10100000I0J-100000D01*
G01*
X15200000Y-10000000D02*
X10100000Y-10000000D01*
X10100000Y-13500000D02*
X15200000Y-13500000D01*
X15300000Y-13400000D02*
X15300000Y-10100000D01*
D11*
D12*
X10115000Y-12995000D02*
X10125000Y-13005000D01*
X10125000Y-12995000D02*
X10115000Y-13005000D01*
X10195000Y-12995000D02*
X10205000Y-13005000D01*
X10205000Y-12995000D02*
X10195000Y-13005000D01*
X10255000Y-13355000D02*
X10265000Y-13365000D01*
X10265000Y-13355000D02*
X10255000Y-13365000D01*
X10382150Y-13307850D02*
X10392150Y-13317850D01*
X10392150Y-13307850D02*
X10382150Y-13317850D01*
X10545000Y-12950000D02*
X10555000Y-12960000D01*
X10555000Y-12950000D02*
X10545000Y-12960000D01*
X10622850Y-13027850D02*
X10632850Y-13037850D01*
X10632850Y-13027850D02*
X10622850Y-13037850D01*
X10635000Y-11835000D02*
X10645000Y-11845000D01*
X10645000Y-11835000D02*
X10635000Y-11845000D01*
X10675000Y-11835000D02*
X10685000Y-11845000D01*
X10685000Y-11835000D02*
X10675000Y-11845000D01*
X10715000Y-11835000D02*
X10725000Y-11845000D01*
X10725000Y-11835000D02*
X10715000Y-11845000D01*
X10735000Y-11735000D02*
X10745000Y-11745000D01*
X10745000Y-11735000D02*
X10735000Y-11745000D01*
X10755000Y-11755000D02*
X10765000Y-11765000D01*
X10765000Y-11755000D02*
X10755000Y-11765000D01*
X10775000Y-11775000D02*
X10785000Y-11785000D01*
X10785000Y-11775000D02*
X10775000Y-11785000D01*
X10855000Y-11455000D02*
X10865000Y-11465000D01*
X10865000Y-11455000D02*
X10855000Y-11465000D01*
X10885000Y-12635000D02*
X10895000Y-12645000D01*
X10895000Y-12635000D02*
X10885000Y-12645000D01*
X10955000Y-12800000D02*
X10965000Y-12810000D01*
X10965000Y-12800000D02*
X10955000Y-12810000D01*
X10995000Y-11635000D02*
X11005000Y-11645000D01*
X11005000Y-11635000D02*
X10995000Y-11645000D01*
X11015000Y-12135000D02*
X11025000Y-12145000D01*
X11025000Y-12135000D02*
X11015000Y-12145000D01*
X11050000Y-13167850D02*
X11060000Y-13177850D01*
X11060000Y-13167850D02*
X11050000Y-13177850D01*
X11077850Y-13262850D02*
X11087850Y-13272850D01*
X11087850Y-13262850D02*
X11077850Y-13272850D01*
X11155000Y-12800000D02*
X11165000Y-12810000D01*
X11165000Y-12800000D02*
X11155000Y-12810000D01*
X11371000Y-12634000D02*
X11381000Y-12644000D01*
X11381000Y-12634000D02*
X11371000Y-12644000D01*
X11408750Y-13111250D02*
X11418750Y-13121250D01*
X11418750Y-13111250D02*
X11408750Y-13121250D01*
X11635000Y-13015000D02*
X11645000Y-13025000D01*
X11645000Y-13015000D02*
X11635000Y-13025000D01*
X11675000Y-13130000D02*
X11685000Y-13140000D01*
X11685000Y-13130000D02*
X11675000Y-13140000D01*
X11755000Y-11675000D02*
X11765000Y-11685000D01*
X11765000Y-11675000D02*
X11755000Y-11685000D01*
X11950000Y-12615000D02*
X11960000Y-12625000D01*
X11960000Y-12615000D02*
X11950000Y-12625000D01*
X11982500Y-11345000D02*
X11992500Y-11355000D01*
X11992500Y-11345000D02*
X11982500Y-11355000D01*
X12275000Y-12915000D02*
X12285000Y-12925000D01*
X12285000Y-12915000D02*
X12275000Y-12925000D01*
X12445000Y-11345000D02*
X12455000Y-11355000D01*
X12455000Y-11345000D02*
X12445000Y-11355000D01*
X12515000Y-11635000D02*
X12525000Y-11645000D01*
X12525000Y-11635000D02*
X12515000Y-11645000D01*
X12515000Y-11675000D02*
X12525000Y-11685000D01*
X12525000Y-11675000D02*
X12515000Y-11685000D01*
X12515000Y-11715000D02*
X12525000Y-11725000D01*
X12525000Y-11715000D02*
X12515000Y-11725000D01*
X12515000Y-11755000D02*
X12525000Y-11765000D01*
X12525000Y-11755000D02*
X12515000Y-11765000D01*
X12555000Y-11595000D02*
X12565000Y-11605000D01*
X12565000Y-11595000D02*
X12555000Y-11605000D01*
X12555000Y-11635000D02*
X12565000Y-11645000D01*
X12565000Y-11635000D02*
X12555000Y-11645000D01*
X12555000Y-11675000D02*
X12565000Y-11685000D01*
X12565000Y-11675000D02*
X12555000Y-11685000D01*
X12555000Y-11715000D02*
X12565000Y-11725000D01*
X12565000Y-11715000D02*
X12555000Y-11725000D01*
X12555000Y-11755000D02*
X12565000Y-11765000D01*
X12565000Y-11755000D02*
X12555000Y-11765000D01*
X12715000Y-12875000D02*
X12725000Y-12885000D01*
X12725000Y-12875000D02*
X12715000Y-12885000D01*
X12730000Y-11485000D02*
X12740000Y-11495000D01*
X12740000Y-11485000D02*
X12730000Y-11495000D01*
X12780000Y-12440000D02*
X12790000Y-12450000D01*
X12790000Y-12440000D02*
X12780000Y-12450000D01*
X12820000Y-12470000D02*
X12830000Y-12480000D01*
X12830000Y-12470000D02*
X12820000Y-12480000D01*
X12940000Y-12100000D02*
X12950000Y-12110000D01*
X12950000Y-12100000D02*
X12940000Y-12110000D01*
X12945000Y-12200000D02*
X12955000Y-12210000D01*
X12955000Y-12200000D02*
X12945000Y-12210000D01*
X12950000Y-12150000D02*
X12960000Y-12160000D01*
X12960000Y-12150000D02*
X12950000Y-12160000D01*
X12975000Y-11375000D02*
X12985000Y-11385000D01*
X12985000Y-11375000D02*
X12975000Y-11385000D01*
X13058750Y-11648750D02*
X13068750Y-11658750D01*
X13068750Y-11648750D02*
X13058750Y-11658750D01*
X13155025Y-12600025D02*
X13165025Y-12610025D01*
X13165025Y-12600025D02*
X13155025Y-12610025D01*
X13200025Y-12640025D02*
X13210025Y-12650025D01*
X13210025Y-12640025D02*
X13200025Y-12650025D01*
X13600000Y-12545000D02*
X13610000Y-12555000D01*
X13610000Y-12545000D02*
X13600000Y-12555000D01*
X13650000Y-12515000D02*
X13660000Y-12525000D01*
X13660000Y-12515000D02*
X13650000Y-12525000D01*
X13811250Y-12391250D02*
X13821250Y-12401250D01*
X13821250Y-12391250D02*
X13811250Y-12401250D01*
X13870000Y-11295050D02*
X13880000Y-11305050D01*
X13880000Y-11295050D02*
X13870000Y-11305050D01*
X13895000Y-11645000D02*
X13905000Y-11655000D01*
X13905000Y-11645000D02*
X13895000Y-11655000D01*
X14655000Y-11315000D02*
X14665000Y-11325000D01*
X14665000Y-11315000D02*
X14655000Y-11325000D01*
X15015000Y-11395000D02*
X15025000Y-11405000D01*
X15025000Y-11395000D02*
X15015000Y-11405000D01*
X15035000Y-11455000D02*
X15045000Y-11465000D01*
X15045000Y-11455000D02*
X15035000Y-11465000D01*
X15035000Y-11495000D02*
X15045000Y-11505000D01*
X15045000Y-11495000D02*
X15035000Y-11505000D01*
X15035000Y-11535000D02*
X15045000Y-11545000D01*
X15045000Y-11535000D02*
X15035000Y-11545000D01*
X15055000Y-11315000D02*
X15065000Y-11325000D01*
X15065000Y-11315000D02*
X15055000Y-11325000D01*
X15095000Y-11315000D02*
X15105000Y-11325000D01*
X15105000Y-11315000D02*
X15095000Y-11325000D01*
X15135000Y-11315000D02*
X15145000Y-11325000D01*
X15145000Y-11315000D02*
X15135000Y-11325000D01*
D13*
X10790000Y-11580000D02*
G75*
G03*
X10790000Y-11580000I-10000J0D01*
G01*
X11060000Y-12215000D02*
G75*
G03*
X11060000Y-12215000I-10000J0D01*
G01*
X11150000Y-11580000D02*
G75*
G03*
X11150000Y-11580000I-10000J0D01*
G01*
X11240000Y-12215000D02*
G75*
G03*
X11240000Y-12215000I-10000J0D01*
G01*
X11410000Y-11680000D02*
G75*
G03*
X11410000Y-11680000I-10000J0D01*
G01*
X11410000Y-11800000D02*
G75*
G03*
X11410000Y-11800000I-10000J0D01*
G01*
X11410000Y-11920000D02*
G75*
G03*
X11410000Y-11920000I-10000J0D01*
G01*
X11410000Y-12040000D02*
G75*
G03*
X11410000Y-12040000I-10000J0D01*
G01*
X11410000Y-12100000D02*
G75*
G03*
X11410000Y-12100000I-10000J0D01*
G01*
X11410000Y-12160000D02*
G75*
G03*
X11410000Y-12160000I-10000J0D01*
G01*
X11410000Y-12220000D02*
G75*
G03*
X11410000Y-12220000I-10000J0D01*
G01*
X11470000Y-11800000D02*
G75*
G03*
X11470000Y-11800000I-10000J0D01*
G01*
X11530000Y-11800000D02*
G75*
G03*
X11530000Y-11800000I-10000J0D01*
G01*
X11590000Y-11800000D02*
G75*
G03*
X11590000Y-11800000I-10000J0D01*
G01*
X11690000Y-11680000D02*
G75*
G03*
X11690000Y-11680000I-10000J0D01*
G01*
X12300000Y-12090000D02*
G75*
G03*
X12300000Y-12090000I-10000J0D01*
G01*
X12350000Y-10760000D02*
G75*
G03*
X12350000Y-10760000I-10000J0D01*
G01*
X12350000Y-10860000D02*
G75*
G03*
X12350000Y-10860000I-10000J0D01*
G01*
X12550000Y-10860000D02*
G75*
G03*
X12550000Y-10860000I-10000J0D01*
G01*
X13130000Y-10860000D02*
G75*
G03*
X13130000Y-10860000I-10000J0D01*
G01*
X13230000Y-10860000D02*
G75*
G03*
X13230000Y-10860000I-10000J0D01*
G01*
X13350000Y-10860000D02*
G75*
G03*
X13350000Y-10860000I-10000J0D01*
G01*
X14010000Y-10860000D02*
G75*
G03*
X14010000Y-10860000I-10000J0D01*
G01*
X14130000Y-10860000D02*
G75*
G03*
X14130000Y-10860000I-10000J0D01*
G01*
X14250000Y-10860000D02*
G75*
G03*
X14250000Y-10860000I-10000J0D01*
G01*
X14910000Y-10860000D02*
G75*
G03*
X14910000Y-10860000I-10000J0D01*
G01*
X15030000Y-10860000D02*
G75*
G03*
X15030000Y-10860000I-10000J0D01*
G01*
X15150000Y-10860000D02*
G75*
G03*
X15150000Y-10860000I-10000J0D01*
G01*
D14*
X14580000Y-13255000D02*
X14580000Y-13305000D01*
X14555000Y-13280000D02*
X14605000Y-13280000D01*
X14680000Y-13255000D02*
X14680000Y-13305000D01*
X14655000Y-13280000D02*
X14705000Y-13280000D01*
X14780000Y-13255000D02*
X14780000Y-13305000D01*
X14755000Y-13280000D02*
X14805000Y-13280000D01*
X14880000Y-13255000D02*
X14880000Y-13305000D01*
X14855000Y-13280000D02*
X14905000Y-13280000D01*
X14980000Y-13255000D02*
X14980000Y-13305000D01*
X14955000Y-13280000D02*
X15005000Y-13280000D01*
D15*
X10348285Y-10148285D02*
X10348285Y-10091716D01*
X10291716Y-10091716D01*
X10291716Y-10148285D01*
X10348285Y-10148285D01*
D11*
X10395000Y-10080000D02*
X10245000Y-10080000D01*
X10245000Y-10080000D02*
G75*
G03*
X10245000Y-10160000I0J-40000D01*
G01*
X10245000Y-10160000D02*
X10395000Y-10160000D01*
X10395000Y-10160000D02*
G75*
G03*
X10395000Y-10080000I0J40000D01*
G01*
D15*
X10348285Y-11138285D02*
X10348285Y-11081716D01*
X10291716Y-11081716D01*
X10291716Y-11138285D01*
X10348285Y-11138285D01*
D11*
X10395000Y-11070000D02*
X10245000Y-11070000D01*
X10245000Y-11070000D02*
G75*
G03*
X10245000Y-11150000I0J-40000D01*
G01*
X10245000Y-11150000D02*
X10395000Y-11150000D01*
X10395000Y-11150000D02*
G75*
G03*
X10395000Y-11070000I0J40000D01*
G01*
D15*
X11078285Y-10238285D02*
X11078285Y-10181716D01*
X11021716Y-10181716D01*
X11021716Y-10238285D01*
X11078285Y-10238285D01*
D11*
X11110000Y-10170000D02*
X10990000Y-10170000D01*
X10990000Y-10170000D02*
G75*
G03*
X10990000Y-10250000I0J-40000D01*
G01*
X10990000Y-10250000D02*
X11110000Y-10250000D01*
X11110000Y-10250000D02*
G75*
G03*
X11110000Y-10170000I0J40000D01*
G01*
D15*
X11078285Y-10758285D02*
X11078285Y-10701716D01*
X11021716Y-10701716D01*
X11021716Y-10758285D01*
X11078285Y-10758285D01*
D11*
X11110000Y-10690000D02*
X10990000Y-10690000D01*
X10990000Y-10690000D02*
G75*
G03*
X10990000Y-10770000I0J-40000D01*
G01*
X10990000Y-10770000D02*
X11110000Y-10770000D01*
X11110000Y-10770000D02*
G75*
G03*
X11110000Y-10690000I0J40000D01*
G01*
D15*
X11078285Y-11098285D02*
X11078285Y-11041716D01*
X11021716Y-11041716D01*
X11021716Y-11098285D01*
X11078285Y-11098285D01*
D11*
X11110000Y-11030000D02*
X10990000Y-11030000D01*
X10990000Y-11030000D02*
G75*
G03*
X10990000Y-11110000I0J-40000D01*
G01*
X10990000Y-11110000D02*
X11110000Y-11110000D01*
X11110000Y-11110000D02*
G75*
G03*
X11110000Y-11030000I0J40000D01*
G01*
D10*
X11470000Y-10500000D02*
X11520000Y-10450000D01*
X11470000Y-10400000D01*
X11420000Y-10450000D01*
X11470000Y-10500000D01*
D11*
X11520000Y-10490000D02*
X11520000Y-10410000D01*
X11520000Y-10410000D02*
G75*
G03*
X11420000Y-10410000I-50000J0D01*
G01*
X11420000Y-10410000D02*
X11420000Y-10490000D01*
X11420000Y-10490000D02*
G75*
G03*
X11520000Y-10490000I50000J0D01*
G01*
D10*
X11940000Y-10500000D02*
X11990000Y-10450000D01*
X11940000Y-10400000D01*
X11890000Y-10450000D01*
X11940000Y-10500000D01*
D11*
X11990000Y-10490000D02*
X11990000Y-10410000D01*
X11990000Y-10410000D02*
G75*
G03*
X11890000Y-10410000I-50000J0D01*
G01*
X11890000Y-10410000D02*
X11890000Y-10490000D01*
X11890000Y-10490000D02*
G75*
G03*
X11990000Y-10490000I50000J0D01*
G01*
D10*
X12410000Y-10500000D02*
X12460000Y-10450000D01*
X12410000Y-10400000D01*
X12360000Y-10450000D01*
X12410000Y-10500000D01*
D11*
X12460000Y-10490000D02*
X12460000Y-10410000D01*
X12460000Y-10410000D02*
G75*
G03*
X12360000Y-10410000I-50000J0D01*
G01*
X12360000Y-10410000D02*
X12360000Y-10490000D01*
X12360000Y-10490000D02*
G75*
G03*
X12460000Y-10490000I50000J0D01*
G01*
D10*
X12950000Y-10550000D02*
X13000000Y-10500000D01*
X12950000Y-10450000D01*
X12900000Y-10500000D01*
X12950000Y-10550000D01*
X13200000Y-10550000D02*
X13250000Y-10500000D01*
X13200000Y-10450000D01*
X13150000Y-10500000D01*
X13200000Y-10550000D01*
X13850000Y-10550000D02*
X13900000Y-10500000D01*
X13850000Y-10450000D01*
X13800000Y-10500000D01*
X13850000Y-10550000D01*
X14100000Y-10550000D02*
X14150000Y-10500000D01*
X14100000Y-10450000D01*
X14050000Y-10500000D01*
X14100000Y-10550000D01*
X14750000Y-10550000D02*
X14800000Y-10500000D01*
X14750000Y-10450000D01*
X14700000Y-10500000D01*
X14750000Y-10550000D01*
X14860000Y-11908000D02*
X14910000Y-11858000D01*
X14860000Y-11808000D01*
X14810000Y-11858000D01*
X14860000Y-11908000D01*
X14860000Y-12162000D02*
X14910000Y-12112000D01*
X14860000Y-12062000D01*
X14810000Y-12112000D01*
X14860000Y-12162000D01*
X14860000Y-12416000D02*
X14910000Y-12366000D01*
X14860000Y-12316000D01*
X14810000Y-12366000D01*
X14860000Y-12416000D01*
X14860000Y-12670000D02*
X14910000Y-12620000D01*
X14860000Y-12570000D01*
X14810000Y-12620000D01*
X14860000Y-12670000D01*
X15000000Y-10550000D02*
X15050000Y-10500000D01*
X15000000Y-10450000D01*
X14950000Y-10500000D01*
X15000000Y-10550000D01*
X15114000Y-11908000D02*
X15164000Y-11858000D01*
X15114000Y-11808000D01*
X15064000Y-11858000D01*
X15114000Y-11908000D01*
X15114000Y-12162000D02*
X15164000Y-12112000D01*
X15114000Y-12062000D01*
X15064000Y-12112000D01*
X15114000Y-12162000D01*
X15114000Y-12416000D02*
X15164000Y-12366000D01*
X15114000Y-12316000D01*
X15064000Y-12366000D01*
X15114000Y-12416000D01*
X15114000Y-12670000D02*
X15164000Y-12620000D01*
X15114000Y-12570000D01*
X15064000Y-12620000D01*
X15114000Y-12670000D01*
D11*
X10242619Y-13817524D02*
X10242619Y-13617524D01*
X10242619Y-13617524D02*
X10290238Y-13617524D01*
X10290238Y-13617524D02*
X10318810Y-13627048D01*
X10318810Y-13627048D02*
X10337857Y-13646095D01*
X10337857Y-13646095D02*
X10347381Y-13665143D01*
X10347381Y-13665143D02*
X10356905Y-13703238D01*
X10356905Y-13703238D02*
X10356905Y-13731809D01*
X10356905Y-13731809D02*
X10347381Y-13769905D01*
X10347381Y-13769905D02*
X10337857Y-13788952D01*
X10337857Y-13788952D02*
X10318810Y-13808000D01*
X10318810Y-13808000D02*
X10290238Y-13817524D01*
X10290238Y-13817524D02*
X10242619Y-13817524D01*
X10442619Y-13817524D02*
X10442619Y-13684190D01*
X10442619Y-13722286D02*
X10452143Y-13703238D01*
X10452143Y-13703238D02*
X10461667Y-13693714D01*
X10461667Y-13693714D02*
X10480714Y-13684190D01*
X10480714Y-13684190D02*
X10499762Y-13684190D01*
X10566429Y-13817524D02*
X10566429Y-13684190D01*
X10566429Y-13617524D02*
X10556905Y-13627048D01*
X10556905Y-13627048D02*
X10566429Y-13636571D01*
X10566429Y-13636571D02*
X10575952Y-13627048D01*
X10575952Y-13627048D02*
X10566429Y-13617524D01*
X10566429Y-13617524D02*
X10566429Y-13636571D01*
X10690238Y-13817524D02*
X10671190Y-13808000D01*
X10671190Y-13808000D02*
X10661667Y-13788952D01*
X10661667Y-13788952D02*
X10661667Y-13617524D01*
X10795000Y-13817524D02*
X10775952Y-13808000D01*
X10775952Y-13808000D02*
X10766429Y-13788952D01*
X10766429Y-13788952D02*
X10766429Y-13617524D01*
X11023571Y-13817524D02*
X11023571Y-13617524D01*
X11023571Y-13617524D02*
X11090238Y-13760381D01*
X11090238Y-13760381D02*
X11156905Y-13617524D01*
X11156905Y-13617524D02*
X11156905Y-13817524D01*
X11337857Y-13817524D02*
X11337857Y-13712762D01*
X11337857Y-13712762D02*
X11328333Y-13693714D01*
X11328333Y-13693714D02*
X11309286Y-13684190D01*
X11309286Y-13684190D02*
X11271190Y-13684190D01*
X11271190Y-13684190D02*
X11252143Y-13693714D01*
X11337857Y-13808000D02*
X11318809Y-13817524D01*
X11318809Y-13817524D02*
X11271190Y-13817524D01*
X11271190Y-13817524D02*
X11252143Y-13808000D01*
X11252143Y-13808000D02*
X11242619Y-13788952D01*
X11242619Y-13788952D02*
X11242619Y-13769905D01*
X11242619Y-13769905D02*
X11252143Y-13750857D01*
X11252143Y-13750857D02*
X11271190Y-13741333D01*
X11271190Y-13741333D02*
X11318809Y-13741333D01*
X11318809Y-13741333D02*
X11337857Y-13731809D01*
X11433095Y-13684190D02*
X11433095Y-13884190D01*
X11433095Y-13693714D02*
X11452143Y-13684190D01*
X11452143Y-13684190D02*
X11490238Y-13684190D01*
X11490238Y-13684190D02*
X11509286Y-13693714D01*
X11509286Y-13693714D02*
X11518809Y-13703238D01*
X11518809Y-13703238D02*
X11528333Y-13722286D01*
X11528333Y-13722286D02*
X11528333Y-13779428D01*
X11528333Y-13779428D02*
X11518809Y-13798476D01*
X11518809Y-13798476D02*
X11509286Y-13808000D01*
X11509286Y-13808000D02*
X11490238Y-13817524D01*
X11490238Y-13817524D02*
X11452143Y-13817524D01*
X11452143Y-13817524D02*
X11433095Y-13808000D01*
X11614048Y-13798476D02*
X11623571Y-13808000D01*
X11623571Y-13808000D02*
X11614048Y-13817524D01*
X11614048Y-13817524D02*
X11604524Y-13808000D01*
X11604524Y-13808000D02*
X11614048Y-13798476D01*
X11614048Y-13798476D02*
X11614048Y-13817524D01*
X11614048Y-13693714D02*
X11623571Y-13703238D01*
X11623571Y-13703238D02*
X11614048Y-13712762D01*
X11614048Y-13712762D02*
X11604524Y-13703238D01*
X11604524Y-13703238D02*
X11614048Y-13693714D01*
X11614048Y-13693714D02*
X11614048Y-13712762D01*
D12*
X9985000Y-14140000D02*
X9995000Y-14150000D01*
X9995000Y-14140000D02*
X9985000Y-14150000D01*
D11*
X10280714Y-14037524D02*
X10299762Y-14037524D01*
X10299762Y-14037524D02*
X10318810Y-14047048D01*
X10318810Y-14047048D02*
X10328333Y-14056571D01*
X10328333Y-14056571D02*
X10337857Y-14075619D01*
X10337857Y-14075619D02*
X10347381Y-14113714D01*
X10347381Y-14113714D02*
X10347381Y-14161333D01*
X10347381Y-14161333D02*
X10337857Y-14199428D01*
X10337857Y-14199428D02*
X10328333Y-14218476D01*
X10328333Y-14218476D02*
X10318810Y-14228000D01*
X10318810Y-14228000D02*
X10299762Y-14237524D01*
X10299762Y-14237524D02*
X10280714Y-14237524D01*
X10280714Y-14237524D02*
X10261667Y-14228000D01*
X10261667Y-14228000D02*
X10252143Y-14218476D01*
X10252143Y-14218476D02*
X10242619Y-14199428D01*
X10242619Y-14199428D02*
X10233095Y-14161333D01*
X10233095Y-14161333D02*
X10233095Y-14113714D01*
X10233095Y-14113714D02*
X10242619Y-14075619D01*
X10242619Y-14075619D02*
X10252143Y-14056571D01*
X10252143Y-14056571D02*
X10261667Y-14047048D01*
X10261667Y-14047048D02*
X10280714Y-14037524D01*
X10433095Y-14218476D02*
X10442619Y-14228000D01*
X10442619Y-14228000D02*
X10433095Y-14237524D01*
X10433095Y-14237524D02*
X10423571Y-14228000D01*
X10423571Y-14228000D02*
X10433095Y-14218476D01*
X10433095Y-14218476D02*
X10433095Y-14237524D01*
X10633095Y-14237524D02*
X10518810Y-14237524D01*
X10575952Y-14237524D02*
X10575952Y-14037524D01*
X10575952Y-14037524D02*
X10556905Y-14066095D01*
X10556905Y-14066095D02*
X10537857Y-14085143D01*
X10537857Y-14085143D02*
X10518810Y-14094667D01*
X10756905Y-14037524D02*
X10775952Y-14037524D01*
X10775952Y-14037524D02*
X10795000Y-14047048D01*
X10795000Y-14047048D02*
X10804524Y-14056571D01*
X10804524Y-14056571D02*
X10814048Y-14075619D01*
X10814048Y-14075619D02*
X10823571Y-14113714D01*
X10823571Y-14113714D02*
X10823571Y-14161333D01*
X10823571Y-14161333D02*
X10814048Y-14199428D01*
X10814048Y-14199428D02*
X10804524Y-14218476D01*
X10804524Y-14218476D02*
X10795000Y-14228000D01*
X10795000Y-14228000D02*
X10775952Y-14237524D01*
X10775952Y-14237524D02*
X10756905Y-14237524D01*
X10756905Y-14237524D02*
X10737857Y-14228000D01*
X10737857Y-14228000D02*
X10728333Y-14218476D01*
X10728333Y-14218476D02*
X10718810Y-14199428D01*
X10718810Y-14199428D02*
X10709286Y-14161333D01*
X10709286Y-14161333D02*
X10709286Y-14113714D01*
X10709286Y-14113714D02*
X10718810Y-14075619D01*
X10718810Y-14075619D02*
X10728333Y-14056571D01*
X10728333Y-14056571D02*
X10737857Y-14047048D01*
X10737857Y-14047048D02*
X10756905Y-14037524D01*
X10947381Y-14037524D02*
X10966429Y-14037524D01*
X10966429Y-14037524D02*
X10985476Y-14047048D01*
X10985476Y-14047048D02*
X10995000Y-14056571D01*
X10995000Y-14056571D02*
X11004524Y-14075619D01*
X11004524Y-14075619D02*
X11014048Y-14113714D01*
X11014048Y-14113714D02*
X11014048Y-14161333D01*
X11014048Y-14161333D02*
X11004524Y-14199428D01*
X11004524Y-14199428D02*
X10995000Y-14218476D01*
X10995000Y-14218476D02*
X10985476Y-14228000D01*
X10985476Y-14228000D02*
X10966429Y-14237524D01*
X10966429Y-14237524D02*
X10947381Y-14237524D01*
X10947381Y-14237524D02*
X10928333Y-14228000D01*
X10928333Y-14228000D02*
X10918810Y-14218476D01*
X10918810Y-14218476D02*
X10909286Y-14199428D01*
X10909286Y-14199428D02*
X10899762Y-14161333D01*
X10899762Y-14161333D02*
X10899762Y-14113714D01*
X10899762Y-14113714D02*
X10909286Y-14075619D01*
X10909286Y-14075619D02*
X10918810Y-14056571D01*
X10918810Y-14056571D02*
X10928333Y-14047048D01*
X10928333Y-14047048D02*
X10947381Y-14037524D01*
X11099762Y-14237524D02*
X11099762Y-14104190D01*
X11099762Y-14123238D02*
X11109286Y-14113714D01*
X11109286Y-14113714D02*
X11128333Y-14104190D01*
X11128333Y-14104190D02*
X11156905Y-14104190D01*
X11156905Y-14104190D02*
X11175952Y-14113714D01*
X11175952Y-14113714D02*
X11185476Y-14132762D01*
X11185476Y-14132762D02*
X11185476Y-14237524D01*
X11185476Y-14132762D02*
X11195000Y-14113714D01*
X11195000Y-14113714D02*
X11214048Y-14104190D01*
X11214048Y-14104190D02*
X11242619Y-14104190D01*
X11242619Y-14104190D02*
X11261667Y-14113714D01*
X11261667Y-14113714D02*
X11271190Y-14132762D01*
X11271190Y-14132762D02*
X11271190Y-14237524D01*
X11366429Y-14237524D02*
X11366429Y-14104190D01*
X11366429Y-14123238D02*
X11375952Y-14113714D01*
X11375952Y-14113714D02*
X11395000Y-14104190D01*
X11395000Y-14104190D02*
X11423571Y-14104190D01*
X11423571Y-14104190D02*
X11442619Y-14113714D01*
X11442619Y-14113714D02*
X11452143Y-14132762D01*
X11452143Y-14132762D02*
X11452143Y-14237524D01*
X11452143Y-14132762D02*
X11461667Y-14113714D01*
X11461667Y-14113714D02*
X11480714Y-14104190D01*
X11480714Y-14104190D02*
X11509286Y-14104190D01*
X11509286Y-14104190D02*
X11528333Y-14113714D01*
X11528333Y-14113714D02*
X11537857Y-14132762D01*
X11537857Y-14132762D02*
X11537857Y-14237524D01*
X11928333Y-14028000D02*
X11756905Y-14285143D01*
X12185476Y-14037524D02*
X12204524Y-14037524D01*
X12204524Y-14037524D02*
X12223572Y-14047048D01*
X12223572Y-14047048D02*
X12233095Y-14056571D01*
X12233095Y-14056571D02*
X12242619Y-14075619D01*
X12242619Y-14075619D02*
X12252143Y-14113714D01*
X12252143Y-14113714D02*
X12252143Y-14161333D01*
X12252143Y-14161333D02*
X12242619Y-14199428D01*
X12242619Y-14199428D02*
X12233095Y-14218476D01*
X12233095Y-14218476D02*
X12223572Y-14228000D01*
X12223572Y-14228000D02*
X12204524Y-14237524D01*
X12204524Y-14237524D02*
X12185476Y-14237524D01*
X12185476Y-14237524D02*
X12166429Y-14228000D01*
X12166429Y-14228000D02*
X12156905Y-14218476D01*
X12156905Y-14218476D02*
X12147381Y-14199428D01*
X12147381Y-14199428D02*
X12137857Y-14161333D01*
X12137857Y-14161333D02*
X12137857Y-14113714D01*
X12137857Y-14113714D02*
X12147381Y-14075619D01*
X12147381Y-14075619D02*
X12156905Y-14056571D01*
X12156905Y-14056571D02*
X12166429Y-14047048D01*
X12166429Y-14047048D02*
X12185476Y-14037524D01*
X12337857Y-14218476D02*
X12347381Y-14228000D01*
X12347381Y-14228000D02*
X12337857Y-14237524D01*
X12337857Y-14237524D02*
X12328333Y-14228000D01*
X12328333Y-14228000D02*
X12337857Y-14218476D01*
X12337857Y-14218476D02*
X12337857Y-14237524D01*
X12471191Y-14037524D02*
X12490238Y-14037524D01*
X12490238Y-14037524D02*
X12509286Y-14047048D01*
X12509286Y-14047048D02*
X12518810Y-14056571D01*
X12518810Y-14056571D02*
X12528333Y-14075619D01*
X12528333Y-14075619D02*
X12537857Y-14113714D01*
X12537857Y-14113714D02*
X12537857Y-14161333D01*
X12537857Y-14161333D02*
X12528333Y-14199428D01*
X12528333Y-14199428D02*
X12518810Y-14218476D01*
X12518810Y-14218476D02*
X12509286Y-14228000D01*
X12509286Y-14228000D02*
X12490238Y-14237524D01*
X12490238Y-14237524D02*
X12471191Y-14237524D01*
X12471191Y-14237524D02*
X12452143Y-14228000D01*
X12452143Y-14228000D02*
X12442619Y-14218476D01*
X12442619Y-14218476D02*
X12433095Y-14199428D01*
X12433095Y-14199428D02*
X12423572Y-14161333D01*
X12423572Y-14161333D02*
X12423572Y-14113714D01*
X12423572Y-14113714D02*
X12433095Y-14075619D01*
X12433095Y-14075619D02*
X12442619Y-14056571D01*
X12442619Y-14056571D02*
X12452143Y-14047048D01*
X12452143Y-14047048D02*
X12471191Y-14037524D01*
X12661667Y-14037524D02*
X12680714Y-14037524D01*
X12680714Y-14037524D02*
X12699762Y-14047048D01*
X12699762Y-14047048D02*
X12709286Y-14056571D01*
X12709286Y-14056571D02*
X12718810Y-14075619D01*
X12718810Y-14075619D02*
X12728333Y-14113714D01*
X12728333Y-14113714D02*
X12728333Y-14161333D01*
X12728333Y-14161333D02*
X12718810Y-14199428D01*
X12718810Y-14199428D02*
X12709286Y-14218476D01*
X12709286Y-14218476D02*
X12699762Y-14228000D01*
X12699762Y-14228000D02*
X12680714Y-14237524D01*
X12680714Y-14237524D02*
X12661667Y-14237524D01*
X12661667Y-14237524D02*
X12642619Y-14228000D01*
X12642619Y-14228000D02*
X12633095Y-14218476D01*
X12633095Y-14218476D02*
X12623572Y-14199428D01*
X12623572Y-14199428D02*
X12614048Y-14161333D01*
X12614048Y-14161333D02*
X12614048Y-14113714D01*
X12614048Y-14113714D02*
X12623572Y-14075619D01*
X12623572Y-14075619D02*
X12633095Y-14056571D01*
X12633095Y-14056571D02*
X12642619Y-14047048D01*
X12642619Y-14047048D02*
X12661667Y-14037524D01*
X12795000Y-14037524D02*
X12918810Y-14037524D01*
X12918810Y-14037524D02*
X12852143Y-14113714D01*
X12852143Y-14113714D02*
X12880714Y-14113714D01*
X12880714Y-14113714D02*
X12899762Y-14123238D01*
X12899762Y-14123238D02*
X12909286Y-14132762D01*
X12909286Y-14132762D02*
X12918810Y-14151809D01*
X12918810Y-14151809D02*
X12918810Y-14199428D01*
X12918810Y-14199428D02*
X12909286Y-14218476D01*
X12909286Y-14218476D02*
X12899762Y-14228000D01*
X12899762Y-14228000D02*
X12880714Y-14237524D01*
X12880714Y-14237524D02*
X12823572Y-14237524D01*
X12823572Y-14237524D02*
X12804524Y-14228000D01*
X12804524Y-14228000D02*
X12795000Y-14218476D01*
X13014048Y-14237524D02*
X13052143Y-14237524D01*
X13052143Y-14237524D02*
X13071191Y-14228000D01*
X13071191Y-14228000D02*
X13080714Y-14218476D01*
X13080714Y-14218476D02*
X13099762Y-14189905D01*
X13099762Y-14189905D02*
X13109286Y-14151809D01*
X13109286Y-14151809D02*
X13109286Y-14075619D01*
X13109286Y-14075619D02*
X13099762Y-14056571D01*
X13099762Y-14056571D02*
X13090238Y-14047048D01*
X13090238Y-14047048D02*
X13071191Y-14037524D01*
X13071191Y-14037524D02*
X13033095Y-14037524D01*
X13033095Y-14037524D02*
X13014048Y-14047048D01*
X13014048Y-14047048D02*
X13004524Y-14056571D01*
X13004524Y-14056571D02*
X12995000Y-14075619D01*
X12995000Y-14075619D02*
X12995000Y-14123238D01*
X12995000Y-14123238D02*
X13004524Y-14142286D01*
X13004524Y-14142286D02*
X13014048Y-14151809D01*
X13014048Y-14151809D02*
X13033095Y-14161333D01*
X13033095Y-14161333D02*
X13071191Y-14161333D01*
X13071191Y-14161333D02*
X13090238Y-14151809D01*
X13090238Y-14151809D02*
X13099762Y-14142286D01*
X13099762Y-14142286D02*
X13109286Y-14123238D01*
X13185476Y-14037524D02*
X13185476Y-14075619D01*
X13261667Y-14037524D02*
X13261667Y-14075619D01*
X13556905Y-14313714D02*
X13547381Y-14304190D01*
X13547381Y-14304190D02*
X13528334Y-14275619D01*
X13528334Y-14275619D02*
X13518810Y-14256571D01*
X13518810Y-14256571D02*
X13509286Y-14228000D01*
X13509286Y-14228000D02*
X13499762Y-14180381D01*
X13499762Y-14180381D02*
X13499762Y-14142286D01*
X13499762Y-14142286D02*
X13509286Y-14094667D01*
X13509286Y-14094667D02*
X13518810Y-14066095D01*
X13518810Y-14066095D02*
X13528334Y-14047048D01*
X13528334Y-14047048D02*
X13547381Y-14018476D01*
X13547381Y-14018476D02*
X13556905Y-14008952D01*
X13718810Y-14037524D02*
X13680714Y-14037524D01*
X13680714Y-14037524D02*
X13661667Y-14047048D01*
X13661667Y-14047048D02*
X13652143Y-14056571D01*
X13652143Y-14056571D02*
X13633095Y-14085143D01*
X13633095Y-14085143D02*
X13623572Y-14123238D01*
X13623572Y-14123238D02*
X13623572Y-14199428D01*
X13623572Y-14199428D02*
X13633095Y-14218476D01*
X13633095Y-14218476D02*
X13642619Y-14228000D01*
X13642619Y-14228000D02*
X13661667Y-14237524D01*
X13661667Y-14237524D02*
X13699762Y-14237524D01*
X13699762Y-14237524D02*
X13718810Y-14228000D01*
X13718810Y-14228000D02*
X13728334Y-14218476D01*
X13728334Y-14218476D02*
X13737857Y-14199428D01*
X13737857Y-14199428D02*
X13737857Y-14151809D01*
X13737857Y-14151809D02*
X13728334Y-14132762D01*
X13728334Y-14132762D02*
X13718810Y-14123238D01*
X13718810Y-14123238D02*
X13699762Y-14113714D01*
X13699762Y-14113714D02*
X13661667Y-14113714D01*
X13661667Y-14113714D02*
X13642619Y-14123238D01*
X13642619Y-14123238D02*
X13633095Y-14132762D01*
X13633095Y-14132762D02*
X13623572Y-14151809D01*
X13814048Y-14056571D02*
X13823572Y-14047048D01*
X13823572Y-14047048D02*
X13842619Y-14037524D01*
X13842619Y-14037524D02*
X13890238Y-14037524D01*
X13890238Y-14037524D02*
X13909286Y-14047048D01*
X13909286Y-14047048D02*
X13918810Y-14056571D01*
X13918810Y-14056571D02*
X13928334Y-14075619D01*
X13928334Y-14075619D02*
X13928334Y-14094667D01*
X13928334Y-14094667D02*
X13918810Y-14123238D01*
X13918810Y-14123238D02*
X13804524Y-14237524D01*
X13804524Y-14237524D02*
X13928334Y-14237524D01*
X14166429Y-14237524D02*
X14166429Y-14037524D01*
X14252143Y-14237524D02*
X14252143Y-14132762D01*
X14252143Y-14132762D02*
X14242619Y-14113714D01*
X14242619Y-14113714D02*
X14223572Y-14104190D01*
X14223572Y-14104190D02*
X14195000Y-14104190D01*
X14195000Y-14104190D02*
X14175953Y-14113714D01*
X14175953Y-14113714D02*
X14166429Y-14123238D01*
X14375953Y-14237524D02*
X14356905Y-14228000D01*
X14356905Y-14228000D02*
X14347381Y-14218476D01*
X14347381Y-14218476D02*
X14337857Y-14199428D01*
X14337857Y-14199428D02*
X14337857Y-14142286D01*
X14337857Y-14142286D02*
X14347381Y-14123238D01*
X14347381Y-14123238D02*
X14356905Y-14113714D01*
X14356905Y-14113714D02*
X14375953Y-14104190D01*
X14375953Y-14104190D02*
X14404524Y-14104190D01*
X14404524Y-14104190D02*
X14423572Y-14113714D01*
X14423572Y-14113714D02*
X14433096Y-14123238D01*
X14433096Y-14123238D02*
X14442619Y-14142286D01*
X14442619Y-14142286D02*
X14442619Y-14199428D01*
X14442619Y-14199428D02*
X14433096Y-14218476D01*
X14433096Y-14218476D02*
X14423572Y-14228000D01*
X14423572Y-14228000D02*
X14404524Y-14237524D01*
X14404524Y-14237524D02*
X14375953Y-14237524D01*
X14556905Y-14237524D02*
X14537857Y-14228000D01*
X14537857Y-14228000D02*
X14528334Y-14208952D01*
X14528334Y-14208952D02*
X14528334Y-14037524D01*
X14709286Y-14228000D02*
X14690238Y-14237524D01*
X14690238Y-14237524D02*
X14652143Y-14237524D01*
X14652143Y-14237524D02*
X14633096Y-14228000D01*
X14633096Y-14228000D02*
X14623572Y-14208952D01*
X14623572Y-14208952D02*
X14623572Y-14132762D01*
X14623572Y-14132762D02*
X14633096Y-14113714D01*
X14633096Y-14113714D02*
X14652143Y-14104190D01*
X14652143Y-14104190D02*
X14690238Y-14104190D01*
X14690238Y-14104190D02*
X14709286Y-14113714D01*
X14709286Y-14113714D02*
X14718810Y-14132762D01*
X14718810Y-14132762D02*
X14718810Y-14151809D01*
X14718810Y-14151809D02*
X14623572Y-14170857D01*
X14795000Y-14228000D02*
X14814048Y-14237524D01*
X14814048Y-14237524D02*
X14852143Y-14237524D01*
X14852143Y-14237524D02*
X14871191Y-14228000D01*
X14871191Y-14228000D02*
X14880715Y-14208952D01*
X14880715Y-14208952D02*
X14880715Y-14199428D01*
X14880715Y-14199428D02*
X14871191Y-14180381D01*
X14871191Y-14180381D02*
X14852143Y-14170857D01*
X14852143Y-14170857D02*
X14823572Y-14170857D01*
X14823572Y-14170857D02*
X14804524Y-14161333D01*
X14804524Y-14161333D02*
X14795000Y-14142286D01*
X14795000Y-14142286D02*
X14795000Y-14132762D01*
X14795000Y-14132762D02*
X14804524Y-14113714D01*
X14804524Y-14113714D02*
X14823572Y-14104190D01*
X14823572Y-14104190D02*
X14852143Y-14104190D01*
X14852143Y-14104190D02*
X14871191Y-14113714D01*
X14947381Y-14313714D02*
X14956905Y-14304190D01*
X14956905Y-14304190D02*
X14975953Y-14275619D01*
X14975953Y-14275619D02*
X14985477Y-14256571D01*
X14985477Y-14256571D02*
X14995000Y-14228000D01*
X14995000Y-14228000D02*
X15004524Y-14180381D01*
X15004524Y-14180381D02*
X15004524Y-14142286D01*
X15004524Y-14142286D02*
X14995000Y-14094667D01*
X14995000Y-14094667D02*
X14985477Y-14066095D01*
X14985477Y-14066095D02*
X14975953Y-14047048D01*
X14975953Y-14047048D02*
X14956905Y-14018476D01*
X14956905Y-14018476D02*
X14947381Y-14008952D01*
D13*
X9995000Y-14409000D02*
G75*
G03*
X9995000Y-14409000I-10000J0D01*
G01*
D11*
X10280714Y-14301524D02*
X10299762Y-14301524D01*
X10299762Y-14301524D02*
X10318810Y-14311048D01*
X10318810Y-14311048D02*
X10328333Y-14320571D01*
X10328333Y-14320571D02*
X10337857Y-14339619D01*
X10337857Y-14339619D02*
X10347381Y-14377714D01*
X10347381Y-14377714D02*
X10347381Y-14425333D01*
X10347381Y-14425333D02*
X10337857Y-14463428D01*
X10337857Y-14463428D02*
X10328333Y-14482476D01*
X10328333Y-14482476D02*
X10318810Y-14492000D01*
X10318810Y-14492000D02*
X10299762Y-14501524D01*
X10299762Y-14501524D02*
X10280714Y-14501524D01*
X10280714Y-14501524D02*
X10261667Y-14492000D01*
X10261667Y-14492000D02*
X10252143Y-14482476D01*
X10252143Y-14482476D02*
X10242619Y-14463428D01*
X10242619Y-14463428D02*
X10233095Y-14425333D01*
X10233095Y-14425333D02*
X10233095Y-14377714D01*
X10233095Y-14377714D02*
X10242619Y-14339619D01*
X10242619Y-14339619D02*
X10252143Y-14320571D01*
X10252143Y-14320571D02*
X10261667Y-14311048D01*
X10261667Y-14311048D02*
X10280714Y-14301524D01*
X10433095Y-14482476D02*
X10442619Y-14492000D01*
X10442619Y-14492000D02*
X10433095Y-14501524D01*
X10433095Y-14501524D02*
X10423571Y-14492000D01*
X10423571Y-14492000D02*
X10433095Y-14482476D01*
X10433095Y-14482476D02*
X10433095Y-14501524D01*
X10518810Y-14320571D02*
X10528333Y-14311048D01*
X10528333Y-14311048D02*
X10547381Y-14301524D01*
X10547381Y-14301524D02*
X10595000Y-14301524D01*
X10595000Y-14301524D02*
X10614048Y-14311048D01*
X10614048Y-14311048D02*
X10623571Y-14320571D01*
X10623571Y-14320571D02*
X10633095Y-14339619D01*
X10633095Y-14339619D02*
X10633095Y-14358667D01*
X10633095Y-14358667D02*
X10623571Y-14387238D01*
X10623571Y-14387238D02*
X10509286Y-14501524D01*
X10509286Y-14501524D02*
X10633095Y-14501524D01*
X10756905Y-14301524D02*
X10775952Y-14301524D01*
X10775952Y-14301524D02*
X10795000Y-14311048D01*
X10795000Y-14311048D02*
X10804524Y-14320571D01*
X10804524Y-14320571D02*
X10814048Y-14339619D01*
X10814048Y-14339619D02*
X10823571Y-14377714D01*
X10823571Y-14377714D02*
X10823571Y-14425333D01*
X10823571Y-14425333D02*
X10814048Y-14463428D01*
X10814048Y-14463428D02*
X10804524Y-14482476D01*
X10804524Y-14482476D02*
X10795000Y-14492000D01*
X10795000Y-14492000D02*
X10775952Y-14501524D01*
X10775952Y-14501524D02*
X10756905Y-14501524D01*
X10756905Y-14501524D02*
X10737857Y-14492000D01*
X10737857Y-14492000D02*
X10728333Y-14482476D01*
X10728333Y-14482476D02*
X10718810Y-14463428D01*
X10718810Y-14463428D02*
X10709286Y-14425333D01*
X10709286Y-14425333D02*
X10709286Y-14377714D01*
X10709286Y-14377714D02*
X10718810Y-14339619D01*
X10718810Y-14339619D02*
X10728333Y-14320571D01*
X10728333Y-14320571D02*
X10737857Y-14311048D01*
X10737857Y-14311048D02*
X10756905Y-14301524D01*
X10947381Y-14301524D02*
X10966429Y-14301524D01*
X10966429Y-14301524D02*
X10985476Y-14311048D01*
X10985476Y-14311048D02*
X10995000Y-14320571D01*
X10995000Y-14320571D02*
X11004524Y-14339619D01*
X11004524Y-14339619D02*
X11014048Y-14377714D01*
X11014048Y-14377714D02*
X11014048Y-14425333D01*
X11014048Y-14425333D02*
X11004524Y-14463428D01*
X11004524Y-14463428D02*
X10995000Y-14482476D01*
X10995000Y-14482476D02*
X10985476Y-14492000D01*
X10985476Y-14492000D02*
X10966429Y-14501524D01*
X10966429Y-14501524D02*
X10947381Y-14501524D01*
X10947381Y-14501524D02*
X10928333Y-14492000D01*
X10928333Y-14492000D02*
X10918810Y-14482476D01*
X10918810Y-14482476D02*
X10909286Y-14463428D01*
X10909286Y-14463428D02*
X10899762Y-14425333D01*
X10899762Y-14425333D02*
X10899762Y-14377714D01*
X10899762Y-14377714D02*
X10909286Y-14339619D01*
X10909286Y-14339619D02*
X10918810Y-14320571D01*
X10918810Y-14320571D02*
X10928333Y-14311048D01*
X10928333Y-14311048D02*
X10947381Y-14301524D01*
X11099762Y-14501524D02*
X11099762Y-14368190D01*
X11099762Y-14387238D02*
X11109286Y-14377714D01*
X11109286Y-14377714D02*
X11128333Y-14368190D01*
X11128333Y-14368190D02*
X11156905Y-14368190D01*
X11156905Y-14368190D02*
X11175952Y-14377714D01*
X11175952Y-14377714D02*
X11185476Y-14396762D01*
X11185476Y-14396762D02*
X11185476Y-14501524D01*
X11185476Y-14396762D02*
X11195000Y-14377714D01*
X11195000Y-14377714D02*
X11214048Y-14368190D01*
X11214048Y-14368190D02*
X11242619Y-14368190D01*
X11242619Y-14368190D02*
X11261667Y-14377714D01*
X11261667Y-14377714D02*
X11271190Y-14396762D01*
X11271190Y-14396762D02*
X11271190Y-14501524D01*
X11366429Y-14501524D02*
X11366429Y-14368190D01*
X11366429Y-14387238D02*
X11375952Y-14377714D01*
X11375952Y-14377714D02*
X11395000Y-14368190D01*
X11395000Y-14368190D02*
X11423571Y-14368190D01*
X11423571Y-14368190D02*
X11442619Y-14377714D01*
X11442619Y-14377714D02*
X11452143Y-14396762D01*
X11452143Y-14396762D02*
X11452143Y-14501524D01*
X11452143Y-14396762D02*
X11461667Y-14377714D01*
X11461667Y-14377714D02*
X11480714Y-14368190D01*
X11480714Y-14368190D02*
X11509286Y-14368190D01*
X11509286Y-14368190D02*
X11528333Y-14377714D01*
X11528333Y-14377714D02*
X11537857Y-14396762D01*
X11537857Y-14396762D02*
X11537857Y-14501524D01*
X11928333Y-14292000D02*
X11756905Y-14549143D01*
X12185476Y-14301524D02*
X12204524Y-14301524D01*
X12204524Y-14301524D02*
X12223572Y-14311048D01*
X12223572Y-14311048D02*
X12233095Y-14320571D01*
X12233095Y-14320571D02*
X12242619Y-14339619D01*
X12242619Y-14339619D02*
X12252143Y-14377714D01*
X12252143Y-14377714D02*
X12252143Y-14425333D01*
X12252143Y-14425333D02*
X12242619Y-14463428D01*
X12242619Y-14463428D02*
X12233095Y-14482476D01*
X12233095Y-14482476D02*
X12223572Y-14492000D01*
X12223572Y-14492000D02*
X12204524Y-14501524D01*
X12204524Y-14501524D02*
X12185476Y-14501524D01*
X12185476Y-14501524D02*
X12166429Y-14492000D01*
X12166429Y-14492000D02*
X12156905Y-14482476D01*
X12156905Y-14482476D02*
X12147381Y-14463428D01*
X12147381Y-14463428D02*
X12137857Y-14425333D01*
X12137857Y-14425333D02*
X12137857Y-14377714D01*
X12137857Y-14377714D02*
X12147381Y-14339619D01*
X12147381Y-14339619D02*
X12156905Y-14320571D01*
X12156905Y-14320571D02*
X12166429Y-14311048D01*
X12166429Y-14311048D02*
X12185476Y-14301524D01*
X12337857Y-14482476D02*
X12347381Y-14492000D01*
X12347381Y-14492000D02*
X12337857Y-14501524D01*
X12337857Y-14501524D02*
X12328333Y-14492000D01*
X12328333Y-14492000D02*
X12337857Y-14482476D01*
X12337857Y-14482476D02*
X12337857Y-14501524D01*
X12471191Y-14301524D02*
X12490238Y-14301524D01*
X12490238Y-14301524D02*
X12509286Y-14311048D01*
X12509286Y-14311048D02*
X12518810Y-14320571D01*
X12518810Y-14320571D02*
X12528333Y-14339619D01*
X12528333Y-14339619D02*
X12537857Y-14377714D01*
X12537857Y-14377714D02*
X12537857Y-14425333D01*
X12537857Y-14425333D02*
X12528333Y-14463428D01*
X12528333Y-14463428D02*
X12518810Y-14482476D01*
X12518810Y-14482476D02*
X12509286Y-14492000D01*
X12509286Y-14492000D02*
X12490238Y-14501524D01*
X12490238Y-14501524D02*
X12471191Y-14501524D01*
X12471191Y-14501524D02*
X12452143Y-14492000D01*
X12452143Y-14492000D02*
X12442619Y-14482476D01*
X12442619Y-14482476D02*
X12433095Y-14463428D01*
X12433095Y-14463428D02*
X12423572Y-14425333D01*
X12423572Y-14425333D02*
X12423572Y-14377714D01*
X12423572Y-14377714D02*
X12433095Y-14339619D01*
X12433095Y-14339619D02*
X12442619Y-14320571D01*
X12442619Y-14320571D02*
X12452143Y-14311048D01*
X12452143Y-14311048D02*
X12471191Y-14301524D01*
X12661667Y-14301524D02*
X12680714Y-14301524D01*
X12680714Y-14301524D02*
X12699762Y-14311048D01*
X12699762Y-14311048D02*
X12709286Y-14320571D01*
X12709286Y-14320571D02*
X12718810Y-14339619D01*
X12718810Y-14339619D02*
X12728333Y-14377714D01*
X12728333Y-14377714D02*
X12728333Y-14425333D01*
X12728333Y-14425333D02*
X12718810Y-14463428D01*
X12718810Y-14463428D02*
X12709286Y-14482476D01*
X12709286Y-14482476D02*
X12699762Y-14492000D01*
X12699762Y-14492000D02*
X12680714Y-14501524D01*
X12680714Y-14501524D02*
X12661667Y-14501524D01*
X12661667Y-14501524D02*
X12642619Y-14492000D01*
X12642619Y-14492000D02*
X12633095Y-14482476D01*
X12633095Y-14482476D02*
X12623572Y-14463428D01*
X12623572Y-14463428D02*
X12614048Y-14425333D01*
X12614048Y-14425333D02*
X12614048Y-14377714D01*
X12614048Y-14377714D02*
X12623572Y-14339619D01*
X12623572Y-14339619D02*
X12633095Y-14320571D01*
X12633095Y-14320571D02*
X12642619Y-14311048D01*
X12642619Y-14311048D02*
X12661667Y-14301524D01*
X12795000Y-14301524D02*
X12928333Y-14301524D01*
X12928333Y-14301524D02*
X12842619Y-14501524D01*
X13014048Y-14501524D02*
X13052143Y-14501524D01*
X13052143Y-14501524D02*
X13071191Y-14492000D01*
X13071191Y-14492000D02*
X13080714Y-14482476D01*
X13080714Y-14482476D02*
X13099762Y-14453905D01*
X13099762Y-14453905D02*
X13109286Y-14415809D01*
X13109286Y-14415809D02*
X13109286Y-14339619D01*
X13109286Y-14339619D02*
X13099762Y-14320571D01*
X13099762Y-14320571D02*
X13090238Y-14311048D01*
X13090238Y-14311048D02*
X13071191Y-14301524D01*
X13071191Y-14301524D02*
X13033095Y-14301524D01*
X13033095Y-14301524D02*
X13014048Y-14311048D01*
X13014048Y-14311048D02*
X13004524Y-14320571D01*
X13004524Y-14320571D02*
X12995000Y-14339619D01*
X12995000Y-14339619D02*
X12995000Y-14387238D01*
X12995000Y-14387238D02*
X13004524Y-14406286D01*
X13004524Y-14406286D02*
X13014048Y-14415809D01*
X13014048Y-14415809D02*
X13033095Y-14425333D01*
X13033095Y-14425333D02*
X13071191Y-14425333D01*
X13071191Y-14425333D02*
X13090238Y-14415809D01*
X13090238Y-14415809D02*
X13099762Y-14406286D01*
X13099762Y-14406286D02*
X13109286Y-14387238D01*
X13185476Y-14301524D02*
X13185476Y-14339619D01*
X13261667Y-14301524D02*
X13261667Y-14339619D01*
X13556905Y-14577714D02*
X13547381Y-14568190D01*
X13547381Y-14568190D02*
X13528334Y-14539619D01*
X13528334Y-14539619D02*
X13518810Y-14520571D01*
X13518810Y-14520571D02*
X13509286Y-14492000D01*
X13509286Y-14492000D02*
X13499762Y-14444381D01*
X13499762Y-14444381D02*
X13499762Y-14406286D01*
X13499762Y-14406286D02*
X13509286Y-14358667D01*
X13509286Y-14358667D02*
X13518810Y-14330095D01*
X13518810Y-14330095D02*
X13528334Y-14311048D01*
X13528334Y-14311048D02*
X13547381Y-14282476D01*
X13547381Y-14282476D02*
X13556905Y-14272952D01*
X13623572Y-14320571D02*
X13633095Y-14311048D01*
X13633095Y-14311048D02*
X13652143Y-14301524D01*
X13652143Y-14301524D02*
X13699762Y-14301524D01*
X13699762Y-14301524D02*
X13718810Y-14311048D01*
X13718810Y-14311048D02*
X13728334Y-14320571D01*
X13728334Y-14320571D02*
X13737857Y-14339619D01*
X13737857Y-14339619D02*
X13737857Y-14358667D01*
X13737857Y-14358667D02*
X13728334Y-14387238D01*
X13728334Y-14387238D02*
X13614048Y-14501524D01*
X13614048Y-14501524D02*
X13737857Y-14501524D01*
X13852143Y-14387238D02*
X13833095Y-14377714D01*
X13833095Y-14377714D02*
X13823572Y-14368190D01*
X13823572Y-14368190D02*
X13814048Y-14349143D01*
X13814048Y-14349143D02*
X13814048Y-14339619D01*
X13814048Y-14339619D02*
X13823572Y-14320571D01*
X13823572Y-14320571D02*
X13833095Y-14311048D01*
X13833095Y-14311048D02*
X13852143Y-14301524D01*
X13852143Y-14301524D02*
X13890238Y-14301524D01*
X13890238Y-14301524D02*
X13909286Y-14311048D01*
X13909286Y-14311048D02*
X13918810Y-14320571D01*
X13918810Y-14320571D02*
X13928334Y-14339619D01*
X13928334Y-14339619D02*
X13928334Y-14349143D01*
X13928334Y-14349143D02*
X13918810Y-14368190D01*
X13918810Y-14368190D02*
X13909286Y-14377714D01*
X13909286Y-14377714D02*
X13890238Y-14387238D01*
X13890238Y-14387238D02*
X13852143Y-14387238D01*
X13852143Y-14387238D02*
X13833095Y-14396762D01*
X13833095Y-14396762D02*
X13823572Y-14406286D01*
X13823572Y-14406286D02*
X13814048Y-14425333D01*
X13814048Y-14425333D02*
X13814048Y-14463428D01*
X13814048Y-14463428D02*
X13823572Y-14482476D01*
X13823572Y-14482476D02*
X13833095Y-14492000D01*
X13833095Y-14492000D02*
X13852143Y-14501524D01*
X13852143Y-14501524D02*
X13890238Y-14501524D01*
X13890238Y-14501524D02*
X13909286Y-14492000D01*
X13909286Y-14492000D02*
X13918810Y-14482476D01*
X13918810Y-14482476D02*
X13928334Y-14463428D01*
X13928334Y-14463428D02*
X13928334Y-14425333D01*
X13928334Y-14425333D02*
X13918810Y-14406286D01*
X13918810Y-14406286D02*
X13909286Y-14396762D01*
X13909286Y-14396762D02*
X13890238Y-14387238D01*
X14166429Y-14501524D02*
X14166429Y-14301524D01*
X14252143Y-14501524D02*
X14252143Y-14396762D01*
X14252143Y-14396762D02*
X14242619Y-14377714D01*
X14242619Y-14377714D02*
X14223572Y-14368190D01*
X14223572Y-14368190D02*
X14195000Y-14368190D01*
X14195000Y-14368190D02*
X14175953Y-14377714D01*
X14175953Y-14377714D02*
X14166429Y-14387238D01*
X14375953Y-14501524D02*
X14356905Y-14492000D01*
X14356905Y-14492000D02*
X14347381Y-14482476D01*
X14347381Y-14482476D02*
X14337857Y-14463428D01*
X14337857Y-14463428D02*
X14337857Y-14406286D01*
X14337857Y-14406286D02*
X14347381Y-14387238D01*
X14347381Y-14387238D02*
X14356905Y-14377714D01*
X14356905Y-14377714D02*
X14375953Y-14368190D01*
X14375953Y-14368190D02*
X14404524Y-14368190D01*
X14404524Y-14368190D02*
X14423572Y-14377714D01*
X14423572Y-14377714D02*
X14433096Y-14387238D01*
X14433096Y-14387238D02*
X14442619Y-14406286D01*
X14442619Y-14406286D02*
X14442619Y-14463428D01*
X14442619Y-14463428D02*
X14433096Y-14482476D01*
X14433096Y-14482476D02*
X14423572Y-14492000D01*
X14423572Y-14492000D02*
X14404524Y-14501524D01*
X14404524Y-14501524D02*
X14375953Y-14501524D01*
X14556905Y-14501524D02*
X14537857Y-14492000D01*
X14537857Y-14492000D02*
X14528334Y-14472952D01*
X14528334Y-14472952D02*
X14528334Y-14301524D01*
X14709286Y-14492000D02*
X14690238Y-14501524D01*
X14690238Y-14501524D02*
X14652143Y-14501524D01*
X14652143Y-14501524D02*
X14633096Y-14492000D01*
X14633096Y-14492000D02*
X14623572Y-14472952D01*
X14623572Y-14472952D02*
X14623572Y-14396762D01*
X14623572Y-14396762D02*
X14633096Y-14377714D01*
X14633096Y-14377714D02*
X14652143Y-14368190D01*
X14652143Y-14368190D02*
X14690238Y-14368190D01*
X14690238Y-14368190D02*
X14709286Y-14377714D01*
X14709286Y-14377714D02*
X14718810Y-14396762D01*
X14718810Y-14396762D02*
X14718810Y-14415809D01*
X14718810Y-14415809D02*
X14623572Y-14434857D01*
X14795000Y-14492000D02*
X14814048Y-14501524D01*
X14814048Y-14501524D02*
X14852143Y-14501524D01*
X14852143Y-14501524D02*
X14871191Y-14492000D01*
X14871191Y-14492000D02*
X14880715Y-14472952D01*
X14880715Y-14472952D02*
X14880715Y-14463428D01*
X14880715Y-14463428D02*
X14871191Y-14444381D01*
X14871191Y-14444381D02*
X14852143Y-14434857D01*
X14852143Y-14434857D02*
X14823572Y-14434857D01*
X14823572Y-14434857D02*
X14804524Y-14425333D01*
X14804524Y-14425333D02*
X14795000Y-14406286D01*
X14795000Y-14406286D02*
X14795000Y-14396762D01*
X14795000Y-14396762D02*
X14804524Y-14377714D01*
X14804524Y-14377714D02*
X14823572Y-14368190D01*
X14823572Y-14368190D02*
X14852143Y-14368190D01*
X14852143Y-14368190D02*
X14871191Y-14377714D01*
X14947381Y-14577714D02*
X14956905Y-14568190D01*
X14956905Y-14568190D02*
X14975953Y-14539619D01*
X14975953Y-14539619D02*
X14985477Y-14520571D01*
X14985477Y-14520571D02*
X14995000Y-14492000D01*
X14995000Y-14492000D02*
X15004524Y-14444381D01*
X15004524Y-14444381D02*
X15004524Y-14406286D01*
X15004524Y-14406286D02*
X14995000Y-14358667D01*
X14995000Y-14358667D02*
X14985477Y-14330095D01*
X14985477Y-14330095D02*
X14975953Y-14311048D01*
X14975953Y-14311048D02*
X14956905Y-14282476D01*
X14956905Y-14282476D02*
X14947381Y-14272952D01*
D14*
X9970000Y-14648000D02*
X9970000Y-14698000D01*
X9945000Y-14673000D02*
X9995000Y-14673000D01*
D11*
X10280714Y-14565524D02*
X10299762Y-14565524D01*
X10299762Y-14565524D02*
X10318810Y-14575048D01*
X10318810Y-14575048D02*
X10328333Y-14584571D01*
X10328333Y-14584571D02*
X10337857Y-14603619D01*
X10337857Y-14603619D02*
X10347381Y-14641714D01*
X10347381Y-14641714D02*
X10347381Y-14689333D01*
X10347381Y-14689333D02*
X10337857Y-14727428D01*
X10337857Y-14727428D02*
X10328333Y-14746476D01*
X10328333Y-14746476D02*
X10318810Y-14756000D01*
X10318810Y-14756000D02*
X10299762Y-14765524D01*
X10299762Y-14765524D02*
X10280714Y-14765524D01*
X10280714Y-14765524D02*
X10261667Y-14756000D01*
X10261667Y-14756000D02*
X10252143Y-14746476D01*
X10252143Y-14746476D02*
X10242619Y-14727428D01*
X10242619Y-14727428D02*
X10233095Y-14689333D01*
X10233095Y-14689333D02*
X10233095Y-14641714D01*
X10233095Y-14641714D02*
X10242619Y-14603619D01*
X10242619Y-14603619D02*
X10252143Y-14584571D01*
X10252143Y-14584571D02*
X10261667Y-14575048D01*
X10261667Y-14575048D02*
X10280714Y-14565524D01*
X10433095Y-14746476D02*
X10442619Y-14756000D01*
X10442619Y-14756000D02*
X10433095Y-14765524D01*
X10433095Y-14765524D02*
X10423571Y-14756000D01*
X10423571Y-14756000D02*
X10433095Y-14746476D01*
X10433095Y-14746476D02*
X10433095Y-14765524D01*
X10623571Y-14565524D02*
X10528333Y-14565524D01*
X10528333Y-14565524D02*
X10518810Y-14660762D01*
X10518810Y-14660762D02*
X10528333Y-14651238D01*
X10528333Y-14651238D02*
X10547381Y-14641714D01*
X10547381Y-14641714D02*
X10595000Y-14641714D01*
X10595000Y-14641714D02*
X10614048Y-14651238D01*
X10614048Y-14651238D02*
X10623571Y-14660762D01*
X10623571Y-14660762D02*
X10633095Y-14679809D01*
X10633095Y-14679809D02*
X10633095Y-14727428D01*
X10633095Y-14727428D02*
X10623571Y-14746476D01*
X10623571Y-14746476D02*
X10614048Y-14756000D01*
X10614048Y-14756000D02*
X10595000Y-14765524D01*
X10595000Y-14765524D02*
X10547381Y-14765524D01*
X10547381Y-14765524D02*
X10528333Y-14756000D01*
X10528333Y-14756000D02*
X10518810Y-14746476D01*
X10756905Y-14565524D02*
X10775952Y-14565524D01*
X10775952Y-14565524D02*
X10795000Y-14575048D01*
X10795000Y-14575048D02*
X10804524Y-14584571D01*
X10804524Y-14584571D02*
X10814048Y-14603619D01*
X10814048Y-14603619D02*
X10823571Y-14641714D01*
X10823571Y-14641714D02*
X10823571Y-14689333D01*
X10823571Y-14689333D02*
X10814048Y-14727428D01*
X10814048Y-14727428D02*
X10804524Y-14746476D01*
X10804524Y-14746476D02*
X10795000Y-14756000D01*
X10795000Y-14756000D02*
X10775952Y-14765524D01*
X10775952Y-14765524D02*
X10756905Y-14765524D01*
X10756905Y-14765524D02*
X10737857Y-14756000D01*
X10737857Y-14756000D02*
X10728333Y-14746476D01*
X10728333Y-14746476D02*
X10718810Y-14727428D01*
X10718810Y-14727428D02*
X10709286Y-14689333D01*
X10709286Y-14689333D02*
X10709286Y-14641714D01*
X10709286Y-14641714D02*
X10718810Y-14603619D01*
X10718810Y-14603619D02*
X10728333Y-14584571D01*
X10728333Y-14584571D02*
X10737857Y-14575048D01*
X10737857Y-14575048D02*
X10756905Y-14565524D01*
X10947381Y-14565524D02*
X10966429Y-14565524D01*
X10966429Y-14565524D02*
X10985476Y-14575048D01*
X10985476Y-14575048D02*
X10995000Y-14584571D01*
X10995000Y-14584571D02*
X11004524Y-14603619D01*
X11004524Y-14603619D02*
X11014048Y-14641714D01*
X11014048Y-14641714D02*
X11014048Y-14689333D01*
X11014048Y-14689333D02*
X11004524Y-14727428D01*
X11004524Y-14727428D02*
X10995000Y-14746476D01*
X10995000Y-14746476D02*
X10985476Y-14756000D01*
X10985476Y-14756000D02*
X10966429Y-14765524D01*
X10966429Y-14765524D02*
X10947381Y-14765524D01*
X10947381Y-14765524D02*
X10928333Y-14756000D01*
X10928333Y-14756000D02*
X10918810Y-14746476D01*
X10918810Y-14746476D02*
X10909286Y-14727428D01*
X10909286Y-14727428D02*
X10899762Y-14689333D01*
X10899762Y-14689333D02*
X10899762Y-14641714D01*
X10899762Y-14641714D02*
X10909286Y-14603619D01*
X10909286Y-14603619D02*
X10918810Y-14584571D01*
X10918810Y-14584571D02*
X10928333Y-14575048D01*
X10928333Y-14575048D02*
X10947381Y-14565524D01*
X11099762Y-14765524D02*
X11099762Y-14632190D01*
X11099762Y-14651238D02*
X11109286Y-14641714D01*
X11109286Y-14641714D02*
X11128333Y-14632190D01*
X11128333Y-14632190D02*
X11156905Y-14632190D01*
X11156905Y-14632190D02*
X11175952Y-14641714D01*
X11175952Y-14641714D02*
X11185476Y-14660762D01*
X11185476Y-14660762D02*
X11185476Y-14765524D01*
X11185476Y-14660762D02*
X11195000Y-14641714D01*
X11195000Y-14641714D02*
X11214048Y-14632190D01*
X11214048Y-14632190D02*
X11242619Y-14632190D01*
X11242619Y-14632190D02*
X11261667Y-14641714D01*
X11261667Y-14641714D02*
X11271190Y-14660762D01*
X11271190Y-14660762D02*
X11271190Y-14765524D01*
X11366429Y-14765524D02*
X11366429Y-14632190D01*
X11366429Y-14651238D02*
X11375952Y-14641714D01*
X11375952Y-14641714D02*
X11395000Y-14632190D01*
X11395000Y-14632190D02*
X11423571Y-14632190D01*
X11423571Y-14632190D02*
X11442619Y-14641714D01*
X11442619Y-14641714D02*
X11452143Y-14660762D01*
X11452143Y-14660762D02*
X11452143Y-14765524D01*
X11452143Y-14660762D02*
X11461667Y-14641714D01*
X11461667Y-14641714D02*
X11480714Y-14632190D01*
X11480714Y-14632190D02*
X11509286Y-14632190D01*
X11509286Y-14632190D02*
X11528333Y-14641714D01*
X11528333Y-14641714D02*
X11537857Y-14660762D01*
X11537857Y-14660762D02*
X11537857Y-14765524D01*
X11928333Y-14556000D02*
X11756905Y-14813143D01*
X12185476Y-14565524D02*
X12204524Y-14565524D01*
X12204524Y-14565524D02*
X12223572Y-14575048D01*
X12223572Y-14575048D02*
X12233095Y-14584571D01*
X12233095Y-14584571D02*
X12242619Y-14603619D01*
X12242619Y-14603619D02*
X12252143Y-14641714D01*
X12252143Y-14641714D02*
X12252143Y-14689333D01*
X12252143Y-14689333D02*
X12242619Y-14727428D01*
X12242619Y-14727428D02*
X12233095Y-14746476D01*
X12233095Y-14746476D02*
X12223572Y-14756000D01*
X12223572Y-14756000D02*
X12204524Y-14765524D01*
X12204524Y-14765524D02*
X12185476Y-14765524D01*
X12185476Y-14765524D02*
X12166429Y-14756000D01*
X12166429Y-14756000D02*
X12156905Y-14746476D01*
X12156905Y-14746476D02*
X12147381Y-14727428D01*
X12147381Y-14727428D02*
X12137857Y-14689333D01*
X12137857Y-14689333D02*
X12137857Y-14641714D01*
X12137857Y-14641714D02*
X12147381Y-14603619D01*
X12147381Y-14603619D02*
X12156905Y-14584571D01*
X12156905Y-14584571D02*
X12166429Y-14575048D01*
X12166429Y-14575048D02*
X12185476Y-14565524D01*
X12337857Y-14746476D02*
X12347381Y-14756000D01*
X12347381Y-14756000D02*
X12337857Y-14765524D01*
X12337857Y-14765524D02*
X12328333Y-14756000D01*
X12328333Y-14756000D02*
X12337857Y-14746476D01*
X12337857Y-14746476D02*
X12337857Y-14765524D01*
X12471191Y-14565524D02*
X12490238Y-14565524D01*
X12490238Y-14565524D02*
X12509286Y-14575048D01*
X12509286Y-14575048D02*
X12518810Y-14584571D01*
X12518810Y-14584571D02*
X12528333Y-14603619D01*
X12528333Y-14603619D02*
X12537857Y-14641714D01*
X12537857Y-14641714D02*
X12537857Y-14689333D01*
X12537857Y-14689333D02*
X12528333Y-14727428D01*
X12528333Y-14727428D02*
X12518810Y-14746476D01*
X12518810Y-14746476D02*
X12509286Y-14756000D01*
X12509286Y-14756000D02*
X12490238Y-14765524D01*
X12490238Y-14765524D02*
X12471191Y-14765524D01*
X12471191Y-14765524D02*
X12452143Y-14756000D01*
X12452143Y-14756000D02*
X12442619Y-14746476D01*
X12442619Y-14746476D02*
X12433095Y-14727428D01*
X12433095Y-14727428D02*
X12423572Y-14689333D01*
X12423572Y-14689333D02*
X12423572Y-14641714D01*
X12423572Y-14641714D02*
X12433095Y-14603619D01*
X12433095Y-14603619D02*
X12442619Y-14584571D01*
X12442619Y-14584571D02*
X12452143Y-14575048D01*
X12452143Y-14575048D02*
X12471191Y-14565524D01*
X12728333Y-14765524D02*
X12614048Y-14765524D01*
X12671191Y-14765524D02*
X12671191Y-14565524D01*
X12671191Y-14565524D02*
X12652143Y-14594095D01*
X12652143Y-14594095D02*
X12633095Y-14613143D01*
X12633095Y-14613143D02*
X12614048Y-14622667D01*
X12823572Y-14765524D02*
X12861667Y-14765524D01*
X12861667Y-14765524D02*
X12880714Y-14756000D01*
X12880714Y-14756000D02*
X12890238Y-14746476D01*
X12890238Y-14746476D02*
X12909286Y-14717905D01*
X12909286Y-14717905D02*
X12918810Y-14679809D01*
X12918810Y-14679809D02*
X12918810Y-14603619D01*
X12918810Y-14603619D02*
X12909286Y-14584571D01*
X12909286Y-14584571D02*
X12899762Y-14575048D01*
X12899762Y-14575048D02*
X12880714Y-14565524D01*
X12880714Y-14565524D02*
X12842619Y-14565524D01*
X12842619Y-14565524D02*
X12823572Y-14575048D01*
X12823572Y-14575048D02*
X12814048Y-14584571D01*
X12814048Y-14584571D02*
X12804524Y-14603619D01*
X12804524Y-14603619D02*
X12804524Y-14651238D01*
X12804524Y-14651238D02*
X12814048Y-14670286D01*
X12814048Y-14670286D02*
X12823572Y-14679809D01*
X12823572Y-14679809D02*
X12842619Y-14689333D01*
X12842619Y-14689333D02*
X12880714Y-14689333D01*
X12880714Y-14689333D02*
X12899762Y-14679809D01*
X12899762Y-14679809D02*
X12909286Y-14670286D01*
X12909286Y-14670286D02*
X12918810Y-14651238D01*
X12985476Y-14565524D02*
X13118810Y-14565524D01*
X13118810Y-14565524D02*
X13033095Y-14765524D01*
X13185476Y-14565524D02*
X13185476Y-14603619D01*
X13261667Y-14565524D02*
X13261667Y-14603619D01*
X13556905Y-14841714D02*
X13547381Y-14832190D01*
X13547381Y-14832190D02*
X13528334Y-14803619D01*
X13528334Y-14803619D02*
X13518810Y-14784571D01*
X13518810Y-14784571D02*
X13509286Y-14756000D01*
X13509286Y-14756000D02*
X13499762Y-14708381D01*
X13499762Y-14708381D02*
X13499762Y-14670286D01*
X13499762Y-14670286D02*
X13509286Y-14622667D01*
X13509286Y-14622667D02*
X13518810Y-14594095D01*
X13518810Y-14594095D02*
X13528334Y-14575048D01*
X13528334Y-14575048D02*
X13547381Y-14546476D01*
X13547381Y-14546476D02*
X13556905Y-14536952D01*
X13728334Y-14565524D02*
X13633095Y-14565524D01*
X13633095Y-14565524D02*
X13623572Y-14660762D01*
X13623572Y-14660762D02*
X13633095Y-14651238D01*
X13633095Y-14651238D02*
X13652143Y-14641714D01*
X13652143Y-14641714D02*
X13699762Y-14641714D01*
X13699762Y-14641714D02*
X13718810Y-14651238D01*
X13718810Y-14651238D02*
X13728334Y-14660762D01*
X13728334Y-14660762D02*
X13737857Y-14679809D01*
X13737857Y-14679809D02*
X13737857Y-14727428D01*
X13737857Y-14727428D02*
X13728334Y-14746476D01*
X13728334Y-14746476D02*
X13718810Y-14756000D01*
X13718810Y-14756000D02*
X13699762Y-14765524D01*
X13699762Y-14765524D02*
X13652143Y-14765524D01*
X13652143Y-14765524D02*
X13633095Y-14756000D01*
X13633095Y-14756000D02*
X13623572Y-14746476D01*
X13975953Y-14765524D02*
X13975953Y-14565524D01*
X14061667Y-14765524D02*
X14061667Y-14660762D01*
X14061667Y-14660762D02*
X14052143Y-14641714D01*
X14052143Y-14641714D02*
X14033096Y-14632190D01*
X14033096Y-14632190D02*
X14004524Y-14632190D01*
X14004524Y-14632190D02*
X13985476Y-14641714D01*
X13985476Y-14641714D02*
X13975953Y-14651238D01*
X14185476Y-14765524D02*
X14166429Y-14756000D01*
X14166429Y-14756000D02*
X14156905Y-14746476D01*
X14156905Y-14746476D02*
X14147381Y-14727428D01*
X14147381Y-14727428D02*
X14147381Y-14670286D01*
X14147381Y-14670286D02*
X14156905Y-14651238D01*
X14156905Y-14651238D02*
X14166429Y-14641714D01*
X14166429Y-14641714D02*
X14185476Y-14632190D01*
X14185476Y-14632190D02*
X14214048Y-14632190D01*
X14214048Y-14632190D02*
X14233096Y-14641714D01*
X14233096Y-14641714D02*
X14242619Y-14651238D01*
X14242619Y-14651238D02*
X14252143Y-14670286D01*
X14252143Y-14670286D02*
X14252143Y-14727428D01*
X14252143Y-14727428D02*
X14242619Y-14746476D01*
X14242619Y-14746476D02*
X14233096Y-14756000D01*
X14233096Y-14756000D02*
X14214048Y-14765524D01*
X14214048Y-14765524D02*
X14185476Y-14765524D01*
X14366429Y-14765524D02*
X14347381Y-14756000D01*
X14347381Y-14756000D02*
X14337857Y-14736952D01*
X14337857Y-14736952D02*
X14337857Y-14565524D01*
X14518810Y-14756000D02*
X14499762Y-14765524D01*
X14499762Y-14765524D02*
X14461667Y-14765524D01*
X14461667Y-14765524D02*
X14442619Y-14756000D01*
X14442619Y-14756000D02*
X14433096Y-14736952D01*
X14433096Y-14736952D02*
X14433096Y-14660762D01*
X14433096Y-14660762D02*
X14442619Y-14641714D01*
X14442619Y-14641714D02*
X14461667Y-14632190D01*
X14461667Y-14632190D02*
X14499762Y-14632190D01*
X14499762Y-14632190D02*
X14518810Y-14641714D01*
X14518810Y-14641714D02*
X14528334Y-14660762D01*
X14528334Y-14660762D02*
X14528334Y-14679809D01*
X14528334Y-14679809D02*
X14433096Y-14698857D01*
X14604524Y-14756000D02*
X14623572Y-14765524D01*
X14623572Y-14765524D02*
X14661667Y-14765524D01*
X14661667Y-14765524D02*
X14680715Y-14756000D01*
X14680715Y-14756000D02*
X14690238Y-14736952D01*
X14690238Y-14736952D02*
X14690238Y-14727428D01*
X14690238Y-14727428D02*
X14680715Y-14708381D01*
X14680715Y-14708381D02*
X14661667Y-14698857D01*
X14661667Y-14698857D02*
X14633096Y-14698857D01*
X14633096Y-14698857D02*
X14614048Y-14689333D01*
X14614048Y-14689333D02*
X14604524Y-14670286D01*
X14604524Y-14670286D02*
X14604524Y-14660762D01*
X14604524Y-14660762D02*
X14614048Y-14641714D01*
X14614048Y-14641714D02*
X14633096Y-14632190D01*
X14633096Y-14632190D02*
X14661667Y-14632190D01*
X14661667Y-14632190D02*
X14680715Y-14641714D01*
X14756905Y-14841714D02*
X14766429Y-14832190D01*
X14766429Y-14832190D02*
X14785477Y-14803619D01*
X14785477Y-14803619D02*
X14795000Y-14784571D01*
X14795000Y-14784571D02*
X14804524Y-14756000D01*
X14804524Y-14756000D02*
X14814048Y-14708381D01*
X14814048Y-14708381D02*
X14814048Y-14670286D01*
X14814048Y-14670286D02*
X14804524Y-14622667D01*
X14804524Y-14622667D02*
X14795000Y-14594095D01*
X14795000Y-14594095D02*
X14785477Y-14575048D01*
X14785477Y-14575048D02*
X14766429Y-14546476D01*
X14766429Y-14546476D02*
X14756905Y-14536952D01*
D15*
X9983285Y-14965284D02*
X9983285Y-14908715D01*
X9926716Y-14908715D01*
X9926716Y-14965284D01*
X9983285Y-14965284D01*
D11*
X10280714Y-14829524D02*
X10299762Y-14829524D01*
X10299762Y-14829524D02*
X10318810Y-14839048D01*
X10318810Y-14839048D02*
X10328333Y-14848571D01*
X10328333Y-14848571D02*
X10337857Y-14867619D01*
X10337857Y-14867619D02*
X10347381Y-14905714D01*
X10347381Y-14905714D02*
X10347381Y-14953333D01*
X10347381Y-14953333D02*
X10337857Y-14991428D01*
X10337857Y-14991428D02*
X10328333Y-15010476D01*
X10328333Y-15010476D02*
X10318810Y-15020000D01*
X10318810Y-15020000D02*
X10299762Y-15029524D01*
X10299762Y-15029524D02*
X10280714Y-15029524D01*
X10280714Y-15029524D02*
X10261667Y-15020000D01*
X10261667Y-15020000D02*
X10252143Y-15010476D01*
X10252143Y-15010476D02*
X10242619Y-14991428D01*
X10242619Y-14991428D02*
X10233095Y-14953333D01*
X10233095Y-14953333D02*
X10233095Y-14905714D01*
X10233095Y-14905714D02*
X10242619Y-14867619D01*
X10242619Y-14867619D02*
X10252143Y-14848571D01*
X10252143Y-14848571D02*
X10261667Y-14839048D01*
X10261667Y-14839048D02*
X10280714Y-14829524D01*
X10433095Y-15010476D02*
X10442619Y-15020000D01*
X10442619Y-15020000D02*
X10433095Y-15029524D01*
X10433095Y-15029524D02*
X10423571Y-15020000D01*
X10423571Y-15020000D02*
X10433095Y-15010476D01*
X10433095Y-15010476D02*
X10433095Y-15029524D01*
X10556905Y-14915238D02*
X10537857Y-14905714D01*
X10537857Y-14905714D02*
X10528333Y-14896190D01*
X10528333Y-14896190D02*
X10518810Y-14877143D01*
X10518810Y-14877143D02*
X10518810Y-14867619D01*
X10518810Y-14867619D02*
X10528333Y-14848571D01*
X10528333Y-14848571D02*
X10537857Y-14839048D01*
X10537857Y-14839048D02*
X10556905Y-14829524D01*
X10556905Y-14829524D02*
X10595000Y-14829524D01*
X10595000Y-14829524D02*
X10614048Y-14839048D01*
X10614048Y-14839048D02*
X10623571Y-14848571D01*
X10623571Y-14848571D02*
X10633095Y-14867619D01*
X10633095Y-14867619D02*
X10633095Y-14877143D01*
X10633095Y-14877143D02*
X10623571Y-14896190D01*
X10623571Y-14896190D02*
X10614048Y-14905714D01*
X10614048Y-14905714D02*
X10595000Y-14915238D01*
X10595000Y-14915238D02*
X10556905Y-14915238D01*
X10556905Y-14915238D02*
X10537857Y-14924762D01*
X10537857Y-14924762D02*
X10528333Y-14934286D01*
X10528333Y-14934286D02*
X10518810Y-14953333D01*
X10518810Y-14953333D02*
X10518810Y-14991428D01*
X10518810Y-14991428D02*
X10528333Y-15010476D01*
X10528333Y-15010476D02*
X10537857Y-15020000D01*
X10537857Y-15020000D02*
X10556905Y-15029524D01*
X10556905Y-15029524D02*
X10595000Y-15029524D01*
X10595000Y-15029524D02*
X10614048Y-15020000D01*
X10614048Y-15020000D02*
X10623571Y-15010476D01*
X10623571Y-15010476D02*
X10633095Y-14991428D01*
X10633095Y-14991428D02*
X10633095Y-14953333D01*
X10633095Y-14953333D02*
X10623571Y-14934286D01*
X10623571Y-14934286D02*
X10614048Y-14924762D01*
X10614048Y-14924762D02*
X10595000Y-14915238D01*
X10756905Y-14829524D02*
X10775952Y-14829524D01*
X10775952Y-14829524D02*
X10795000Y-14839048D01*
X10795000Y-14839048D02*
X10804524Y-14848571D01*
X10804524Y-14848571D02*
X10814048Y-14867619D01*
X10814048Y-14867619D02*
X10823571Y-14905714D01*
X10823571Y-14905714D02*
X10823571Y-14953333D01*
X10823571Y-14953333D02*
X10814048Y-14991428D01*
X10814048Y-14991428D02*
X10804524Y-15010476D01*
X10804524Y-15010476D02*
X10795000Y-15020000D01*
X10795000Y-15020000D02*
X10775952Y-15029524D01*
X10775952Y-15029524D02*
X10756905Y-15029524D01*
X10756905Y-15029524D02*
X10737857Y-15020000D01*
X10737857Y-15020000D02*
X10728333Y-15010476D01*
X10728333Y-15010476D02*
X10718810Y-14991428D01*
X10718810Y-14991428D02*
X10709286Y-14953333D01*
X10709286Y-14953333D02*
X10709286Y-14905714D01*
X10709286Y-14905714D02*
X10718810Y-14867619D01*
X10718810Y-14867619D02*
X10728333Y-14848571D01*
X10728333Y-14848571D02*
X10737857Y-14839048D01*
X10737857Y-14839048D02*
X10756905Y-14829524D01*
X10947381Y-14829524D02*
X10966429Y-14829524D01*
X10966429Y-14829524D02*
X10985476Y-14839048D01*
X10985476Y-14839048D02*
X10995000Y-14848571D01*
X10995000Y-14848571D02*
X11004524Y-14867619D01*
X11004524Y-14867619D02*
X11014048Y-14905714D01*
X11014048Y-14905714D02*
X11014048Y-14953333D01*
X11014048Y-14953333D02*
X11004524Y-14991428D01*
X11004524Y-14991428D02*
X10995000Y-15010476D01*
X10995000Y-15010476D02*
X10985476Y-15020000D01*
X10985476Y-15020000D02*
X10966429Y-15029524D01*
X10966429Y-15029524D02*
X10947381Y-15029524D01*
X10947381Y-15029524D02*
X10928333Y-15020000D01*
X10928333Y-15020000D02*
X10918810Y-15010476D01*
X10918810Y-15010476D02*
X10909286Y-14991428D01*
X10909286Y-14991428D02*
X10899762Y-14953333D01*
X10899762Y-14953333D02*
X10899762Y-14905714D01*
X10899762Y-14905714D02*
X10909286Y-14867619D01*
X10909286Y-14867619D02*
X10918810Y-14848571D01*
X10918810Y-14848571D02*
X10928333Y-14839048D01*
X10928333Y-14839048D02*
X10947381Y-14829524D01*
X11099762Y-15029524D02*
X11099762Y-14896190D01*
X11099762Y-14915238D02*
X11109286Y-14905714D01*
X11109286Y-14905714D02*
X11128333Y-14896190D01*
X11128333Y-14896190D02*
X11156905Y-14896190D01*
X11156905Y-14896190D02*
X11175952Y-14905714D01*
X11175952Y-14905714D02*
X11185476Y-14924762D01*
X11185476Y-14924762D02*
X11185476Y-15029524D01*
X11185476Y-14924762D02*
X11195000Y-14905714D01*
X11195000Y-14905714D02*
X11214048Y-14896190D01*
X11214048Y-14896190D02*
X11242619Y-14896190D01*
X11242619Y-14896190D02*
X11261667Y-14905714D01*
X11261667Y-14905714D02*
X11271190Y-14924762D01*
X11271190Y-14924762D02*
X11271190Y-15029524D01*
X11366429Y-15029524D02*
X11366429Y-14896190D01*
X11366429Y-14915238D02*
X11375952Y-14905714D01*
X11375952Y-14905714D02*
X11395000Y-14896190D01*
X11395000Y-14896190D02*
X11423571Y-14896190D01*
X11423571Y-14896190D02*
X11442619Y-14905714D01*
X11442619Y-14905714D02*
X11452143Y-14924762D01*
X11452143Y-14924762D02*
X11452143Y-15029524D01*
X11452143Y-14924762D02*
X11461667Y-14905714D01*
X11461667Y-14905714D02*
X11480714Y-14896190D01*
X11480714Y-14896190D02*
X11509286Y-14896190D01*
X11509286Y-14896190D02*
X11528333Y-14905714D01*
X11528333Y-14905714D02*
X11537857Y-14924762D01*
X11537857Y-14924762D02*
X11537857Y-15029524D01*
X11928333Y-14820000D02*
X11756905Y-15077143D01*
X12185476Y-14829524D02*
X12204524Y-14829524D01*
X12204524Y-14829524D02*
X12223572Y-14839048D01*
X12223572Y-14839048D02*
X12233095Y-14848571D01*
X12233095Y-14848571D02*
X12242619Y-14867619D01*
X12242619Y-14867619D02*
X12252143Y-14905714D01*
X12252143Y-14905714D02*
X12252143Y-14953333D01*
X12252143Y-14953333D02*
X12242619Y-14991428D01*
X12242619Y-14991428D02*
X12233095Y-15010476D01*
X12233095Y-15010476D02*
X12223572Y-15020000D01*
X12223572Y-15020000D02*
X12204524Y-15029524D01*
X12204524Y-15029524D02*
X12185476Y-15029524D01*
X12185476Y-15029524D02*
X12166429Y-15020000D01*
X12166429Y-15020000D02*
X12156905Y-15010476D01*
X12156905Y-15010476D02*
X12147381Y-14991428D01*
X12147381Y-14991428D02*
X12137857Y-14953333D01*
X12137857Y-14953333D02*
X12137857Y-14905714D01*
X12137857Y-14905714D02*
X12147381Y-14867619D01*
X12147381Y-14867619D02*
X12156905Y-14848571D01*
X12156905Y-14848571D02*
X12166429Y-14839048D01*
X12166429Y-14839048D02*
X12185476Y-14829524D01*
X12337857Y-15010476D02*
X12347381Y-15020000D01*
X12347381Y-15020000D02*
X12337857Y-15029524D01*
X12337857Y-15029524D02*
X12328333Y-15020000D01*
X12328333Y-15020000D02*
X12337857Y-15010476D01*
X12337857Y-15010476D02*
X12337857Y-15029524D01*
X12471191Y-14829524D02*
X12490238Y-14829524D01*
X12490238Y-14829524D02*
X12509286Y-14839048D01*
X12509286Y-14839048D02*
X12518810Y-14848571D01*
X12518810Y-14848571D02*
X12528333Y-14867619D01*
X12528333Y-14867619D02*
X12537857Y-14905714D01*
X12537857Y-14905714D02*
X12537857Y-14953333D01*
X12537857Y-14953333D02*
X12528333Y-14991428D01*
X12528333Y-14991428D02*
X12518810Y-15010476D01*
X12518810Y-15010476D02*
X12509286Y-15020000D01*
X12509286Y-15020000D02*
X12490238Y-15029524D01*
X12490238Y-15029524D02*
X12471191Y-15029524D01*
X12471191Y-15029524D02*
X12452143Y-15020000D01*
X12452143Y-15020000D02*
X12442619Y-15010476D01*
X12442619Y-15010476D02*
X12433095Y-14991428D01*
X12433095Y-14991428D02*
X12423572Y-14953333D01*
X12423572Y-14953333D02*
X12423572Y-14905714D01*
X12423572Y-14905714D02*
X12433095Y-14867619D01*
X12433095Y-14867619D02*
X12442619Y-14848571D01*
X12442619Y-14848571D02*
X12452143Y-14839048D01*
X12452143Y-14839048D02*
X12471191Y-14829524D01*
X12604524Y-14829524D02*
X12728333Y-14829524D01*
X12728333Y-14829524D02*
X12661667Y-14905714D01*
X12661667Y-14905714D02*
X12690238Y-14905714D01*
X12690238Y-14905714D02*
X12709286Y-14915238D01*
X12709286Y-14915238D02*
X12718810Y-14924762D01*
X12718810Y-14924762D02*
X12728333Y-14943809D01*
X12728333Y-14943809D02*
X12728333Y-14991428D01*
X12728333Y-14991428D02*
X12718810Y-15010476D01*
X12718810Y-15010476D02*
X12709286Y-15020000D01*
X12709286Y-15020000D02*
X12690238Y-15029524D01*
X12690238Y-15029524D02*
X12633095Y-15029524D01*
X12633095Y-15029524D02*
X12614048Y-15020000D01*
X12614048Y-15020000D02*
X12604524Y-15010476D01*
X12918810Y-15029524D02*
X12804524Y-15029524D01*
X12861667Y-15029524D02*
X12861667Y-14829524D01*
X12861667Y-14829524D02*
X12842619Y-14858095D01*
X12842619Y-14858095D02*
X12823572Y-14877143D01*
X12823572Y-14877143D02*
X12804524Y-14886667D01*
X13099762Y-14829524D02*
X13004524Y-14829524D01*
X13004524Y-14829524D02*
X12995000Y-14924762D01*
X12995000Y-14924762D02*
X13004524Y-14915238D01*
X13004524Y-14915238D02*
X13023572Y-14905714D01*
X13023572Y-14905714D02*
X13071191Y-14905714D01*
X13071191Y-14905714D02*
X13090238Y-14915238D01*
X13090238Y-14915238D02*
X13099762Y-14924762D01*
X13099762Y-14924762D02*
X13109286Y-14943809D01*
X13109286Y-14943809D02*
X13109286Y-14991428D01*
X13109286Y-14991428D02*
X13099762Y-15010476D01*
X13099762Y-15010476D02*
X13090238Y-15020000D01*
X13090238Y-15020000D02*
X13071191Y-15029524D01*
X13071191Y-15029524D02*
X13023572Y-15029524D01*
X13023572Y-15029524D02*
X13004524Y-15020000D01*
X13004524Y-15020000D02*
X12995000Y-15010476D01*
X13185476Y-14829524D02*
X13185476Y-14867619D01*
X13261667Y-14829524D02*
X13261667Y-14867619D01*
X13556905Y-15105714D02*
X13547381Y-15096190D01*
X13547381Y-15096190D02*
X13528334Y-15067619D01*
X13528334Y-15067619D02*
X13518810Y-15048571D01*
X13518810Y-15048571D02*
X13509286Y-15020000D01*
X13509286Y-15020000D02*
X13499762Y-14972381D01*
X13499762Y-14972381D02*
X13499762Y-14934286D01*
X13499762Y-14934286D02*
X13509286Y-14886667D01*
X13509286Y-14886667D02*
X13518810Y-14858095D01*
X13518810Y-14858095D02*
X13528334Y-14839048D01*
X13528334Y-14839048D02*
X13547381Y-14810476D01*
X13547381Y-14810476D02*
X13556905Y-14800952D01*
X13671191Y-14829524D02*
X13690238Y-14829524D01*
X13690238Y-14829524D02*
X13709286Y-14839048D01*
X13709286Y-14839048D02*
X13718810Y-14848571D01*
X13718810Y-14848571D02*
X13728334Y-14867619D01*
X13728334Y-14867619D02*
X13737857Y-14905714D01*
X13737857Y-14905714D02*
X13737857Y-14953333D01*
X13737857Y-14953333D02*
X13728334Y-14991428D01*
X13728334Y-14991428D02*
X13718810Y-15010476D01*
X13718810Y-15010476D02*
X13709286Y-15020000D01*
X13709286Y-15020000D02*
X13690238Y-15029524D01*
X13690238Y-15029524D02*
X13671191Y-15029524D01*
X13671191Y-15029524D02*
X13652143Y-15020000D01*
X13652143Y-15020000D02*
X13642619Y-15010476D01*
X13642619Y-15010476D02*
X13633095Y-14991428D01*
X13633095Y-14991428D02*
X13623572Y-14953333D01*
X13623572Y-14953333D02*
X13623572Y-14905714D01*
X13623572Y-14905714D02*
X13633095Y-14867619D01*
X13633095Y-14867619D02*
X13642619Y-14848571D01*
X13642619Y-14848571D02*
X13652143Y-14839048D01*
X13652143Y-14839048D02*
X13671191Y-14829524D01*
X13975953Y-15029524D02*
X13975953Y-14829524D01*
X14061667Y-15029524D02*
X14061667Y-14924762D01*
X14061667Y-14924762D02*
X14052143Y-14905714D01*
X14052143Y-14905714D02*
X14033096Y-14896190D01*
X14033096Y-14896190D02*
X14004524Y-14896190D01*
X14004524Y-14896190D02*
X13985476Y-14905714D01*
X13985476Y-14905714D02*
X13975953Y-14915238D01*
X14185476Y-15029524D02*
X14166429Y-15020000D01*
X14166429Y-15020000D02*
X14156905Y-15010476D01*
X14156905Y-15010476D02*
X14147381Y-14991428D01*
X14147381Y-14991428D02*
X14147381Y-14934286D01*
X14147381Y-14934286D02*
X14156905Y-14915238D01*
X14156905Y-14915238D02*
X14166429Y-14905714D01*
X14166429Y-14905714D02*
X14185476Y-14896190D01*
X14185476Y-14896190D02*
X14214048Y-14896190D01*
X14214048Y-14896190D02*
X14233096Y-14905714D01*
X14233096Y-14905714D02*
X14242619Y-14915238D01*
X14242619Y-14915238D02*
X14252143Y-14934286D01*
X14252143Y-14934286D02*
X14252143Y-14991428D01*
X14252143Y-14991428D02*
X14242619Y-15010476D01*
X14242619Y-15010476D02*
X14233096Y-15020000D01*
X14233096Y-15020000D02*
X14214048Y-15029524D01*
X14214048Y-15029524D02*
X14185476Y-15029524D01*
X14366429Y-15029524D02*
X14347381Y-15020000D01*
X14347381Y-15020000D02*
X14337857Y-15000952D01*
X14337857Y-15000952D02*
X14337857Y-14829524D01*
X14518810Y-15020000D02*
X14499762Y-15029524D01*
X14499762Y-15029524D02*
X14461667Y-15029524D01*
X14461667Y-15029524D02*
X14442619Y-15020000D01*
X14442619Y-15020000D02*
X14433096Y-15000952D01*
X14433096Y-15000952D02*
X14433096Y-14924762D01*
X14433096Y-14924762D02*
X14442619Y-14905714D01*
X14442619Y-14905714D02*
X14461667Y-14896190D01*
X14461667Y-14896190D02*
X14499762Y-14896190D01*
X14499762Y-14896190D02*
X14518810Y-14905714D01*
X14518810Y-14905714D02*
X14528334Y-14924762D01*
X14528334Y-14924762D02*
X14528334Y-14943809D01*
X14528334Y-14943809D02*
X14433096Y-14962857D01*
X14604524Y-15020000D02*
X14623572Y-15029524D01*
X14623572Y-15029524D02*
X14661667Y-15029524D01*
X14661667Y-15029524D02*
X14680715Y-15020000D01*
X14680715Y-15020000D02*
X14690238Y-15000952D01*
X14690238Y-15000952D02*
X14690238Y-14991428D01*
X14690238Y-14991428D02*
X14680715Y-14972381D01*
X14680715Y-14972381D02*
X14661667Y-14962857D01*
X14661667Y-14962857D02*
X14633096Y-14962857D01*
X14633096Y-14962857D02*
X14614048Y-14953333D01*
X14614048Y-14953333D02*
X14604524Y-14934286D01*
X14604524Y-14934286D02*
X14604524Y-14924762D01*
X14604524Y-14924762D02*
X14614048Y-14905714D01*
X14614048Y-14905714D02*
X14633096Y-14896190D01*
X14633096Y-14896190D02*
X14661667Y-14896190D01*
X14661667Y-14896190D02*
X14680715Y-14905714D01*
X14928334Y-14953333D02*
X15080715Y-14953333D01*
X15004524Y-15029524D02*
X15004524Y-14877143D01*
X15423572Y-14829524D02*
X15328334Y-14829524D01*
X15328334Y-14829524D02*
X15318810Y-14924762D01*
X15318810Y-14924762D02*
X15328334Y-14915238D01*
X15328334Y-14915238D02*
X15347381Y-14905714D01*
X15347381Y-14905714D02*
X15395000Y-14905714D01*
X15395000Y-14905714D02*
X15414048Y-14915238D01*
X15414048Y-14915238D02*
X15423572Y-14924762D01*
X15423572Y-14924762D02*
X15433096Y-14943809D01*
X15433096Y-14943809D02*
X15433096Y-14991428D01*
X15433096Y-14991428D02*
X15423572Y-15010476D01*
X15423572Y-15010476D02*
X15414048Y-15020000D01*
X15414048Y-15020000D02*
X15395000Y-15029524D01*
X15395000Y-15029524D02*
X15347381Y-15029524D01*
X15347381Y-15029524D02*
X15328334Y-15020000D01*
X15328334Y-15020000D02*
X15318810Y-15010476D01*
X15661667Y-15020000D02*
X15680715Y-15029524D01*
X15680715Y-15029524D02*
X15718810Y-15029524D01*
X15718810Y-15029524D02*
X15737858Y-15020000D01*
X15737858Y-15020000D02*
X15747381Y-15000952D01*
X15747381Y-15000952D02*
X15747381Y-14991428D01*
X15747381Y-14991428D02*
X15737858Y-14972381D01*
X15737858Y-14972381D02*
X15718810Y-14962857D01*
X15718810Y-14962857D02*
X15690239Y-14962857D01*
X15690239Y-14962857D02*
X15671191Y-14953333D01*
X15671191Y-14953333D02*
X15661667Y-14934286D01*
X15661667Y-14934286D02*
X15661667Y-14924762D01*
X15661667Y-14924762D02*
X15671191Y-14905714D01*
X15671191Y-14905714D02*
X15690239Y-14896190D01*
X15690239Y-14896190D02*
X15718810Y-14896190D01*
X15718810Y-14896190D02*
X15737858Y-14905714D01*
X15861667Y-15029524D02*
X15842620Y-15020000D01*
X15842620Y-15020000D02*
X15833096Y-15000952D01*
X15833096Y-15000952D02*
X15833096Y-14829524D01*
X15966429Y-15029524D02*
X15947381Y-15020000D01*
X15947381Y-15020000D02*
X15937858Y-15010476D01*
X15937858Y-15010476D02*
X15928334Y-14991428D01*
X15928334Y-14991428D02*
X15928334Y-14934286D01*
X15928334Y-14934286D02*
X15937858Y-14915238D01*
X15937858Y-14915238D02*
X15947381Y-14905714D01*
X15947381Y-14905714D02*
X15966429Y-14896190D01*
X15966429Y-14896190D02*
X15995001Y-14896190D01*
X15995001Y-14896190D02*
X16014048Y-14905714D01*
X16014048Y-14905714D02*
X16023572Y-14915238D01*
X16023572Y-14915238D02*
X16033096Y-14934286D01*
X16033096Y-14934286D02*
X16033096Y-14991428D01*
X16033096Y-14991428D02*
X16023572Y-15010476D01*
X16023572Y-15010476D02*
X16014048Y-15020000D01*
X16014048Y-15020000D02*
X15995001Y-15029524D01*
X15995001Y-15029524D02*
X15966429Y-15029524D01*
X16090239Y-14896190D02*
X16166429Y-14896190D01*
X16118810Y-14829524D02*
X16118810Y-15000952D01*
X16118810Y-15000952D02*
X16128334Y-15020000D01*
X16128334Y-15020000D02*
X16147381Y-15029524D01*
X16147381Y-15029524D02*
X16166429Y-15029524D01*
X16223572Y-15020000D02*
X16242620Y-15029524D01*
X16242620Y-15029524D02*
X16280715Y-15029524D01*
X16280715Y-15029524D02*
X16299762Y-15020000D01*
X16299762Y-15020000D02*
X16309286Y-15000952D01*
X16309286Y-15000952D02*
X16309286Y-14991428D01*
X16309286Y-14991428D02*
X16299762Y-14972381D01*
X16299762Y-14972381D02*
X16280715Y-14962857D01*
X16280715Y-14962857D02*
X16252143Y-14962857D01*
X16252143Y-14962857D02*
X16233096Y-14953333D01*
X16233096Y-14953333D02*
X16223572Y-14934286D01*
X16223572Y-14934286D02*
X16223572Y-14924762D01*
X16223572Y-14924762D02*
X16233096Y-14905714D01*
X16233096Y-14905714D02*
X16252143Y-14896190D01*
X16252143Y-14896190D02*
X16280715Y-14896190D01*
X16280715Y-14896190D02*
X16299762Y-14905714D01*
X16375953Y-15105714D02*
X16385477Y-15096190D01*
X16385477Y-15096190D02*
X16404524Y-15067619D01*
X16404524Y-15067619D02*
X16414048Y-15048571D01*
X16414048Y-15048571D02*
X16423572Y-15020000D01*
X16423572Y-15020000D02*
X16433096Y-14972381D01*
X16433096Y-14972381D02*
X16433096Y-14934286D01*
X16433096Y-14934286D02*
X16423572Y-14886667D01*
X16423572Y-14886667D02*
X16414048Y-14858095D01*
X16414048Y-14858095D02*
X16404524Y-14839048D01*
X16404524Y-14839048D02*
X16385477Y-14810476D01*
X16385477Y-14810476D02*
X16375953Y-14800952D01*
D10*
X9945000Y-15251000D02*
X9995000Y-15201000D01*
X9945000Y-15151000D01*
X9895000Y-15201000D01*
X9945000Y-15251000D01*
D11*
X10347381Y-15293524D02*
X10233095Y-15293524D01*
X10290238Y-15293524D02*
X10290238Y-15093524D01*
X10290238Y-15093524D02*
X10271190Y-15122095D01*
X10271190Y-15122095D02*
X10252143Y-15141143D01*
X10252143Y-15141143D02*
X10233095Y-15150667D01*
X10433095Y-15274476D02*
X10442619Y-15284000D01*
X10442619Y-15284000D02*
X10433095Y-15293524D01*
X10433095Y-15293524D02*
X10423571Y-15284000D01*
X10423571Y-15284000D02*
X10433095Y-15274476D01*
X10433095Y-15274476D02*
X10433095Y-15293524D01*
X10566429Y-15093524D02*
X10585476Y-15093524D01*
X10585476Y-15093524D02*
X10604524Y-15103048D01*
X10604524Y-15103048D02*
X10614048Y-15112571D01*
X10614048Y-15112571D02*
X10623571Y-15131619D01*
X10623571Y-15131619D02*
X10633095Y-15169714D01*
X10633095Y-15169714D02*
X10633095Y-15217333D01*
X10633095Y-15217333D02*
X10623571Y-15255428D01*
X10623571Y-15255428D02*
X10614048Y-15274476D01*
X10614048Y-15274476D02*
X10604524Y-15284000D01*
X10604524Y-15284000D02*
X10585476Y-15293524D01*
X10585476Y-15293524D02*
X10566429Y-15293524D01*
X10566429Y-15293524D02*
X10547381Y-15284000D01*
X10547381Y-15284000D02*
X10537857Y-15274476D01*
X10537857Y-15274476D02*
X10528333Y-15255428D01*
X10528333Y-15255428D02*
X10518810Y-15217333D01*
X10518810Y-15217333D02*
X10518810Y-15169714D01*
X10518810Y-15169714D02*
X10528333Y-15131619D01*
X10528333Y-15131619D02*
X10537857Y-15112571D01*
X10537857Y-15112571D02*
X10547381Y-15103048D01*
X10547381Y-15103048D02*
X10566429Y-15093524D01*
X10756905Y-15093524D02*
X10775952Y-15093524D01*
X10775952Y-15093524D02*
X10795000Y-15103048D01*
X10795000Y-15103048D02*
X10804524Y-15112571D01*
X10804524Y-15112571D02*
X10814048Y-15131619D01*
X10814048Y-15131619D02*
X10823571Y-15169714D01*
X10823571Y-15169714D02*
X10823571Y-15217333D01*
X10823571Y-15217333D02*
X10814048Y-15255428D01*
X10814048Y-15255428D02*
X10804524Y-15274476D01*
X10804524Y-15274476D02*
X10795000Y-15284000D01*
X10795000Y-15284000D02*
X10775952Y-15293524D01*
X10775952Y-15293524D02*
X10756905Y-15293524D01*
X10756905Y-15293524D02*
X10737857Y-15284000D01*
X10737857Y-15284000D02*
X10728333Y-15274476D01*
X10728333Y-15274476D02*
X10718810Y-15255428D01*
X10718810Y-15255428D02*
X10709286Y-15217333D01*
X10709286Y-15217333D02*
X10709286Y-15169714D01*
X10709286Y-15169714D02*
X10718810Y-15131619D01*
X10718810Y-15131619D02*
X10728333Y-15112571D01*
X10728333Y-15112571D02*
X10737857Y-15103048D01*
X10737857Y-15103048D02*
X10756905Y-15093524D01*
X10947381Y-15093524D02*
X10966429Y-15093524D01*
X10966429Y-15093524D02*
X10985476Y-15103048D01*
X10985476Y-15103048D02*
X10995000Y-15112571D01*
X10995000Y-15112571D02*
X11004524Y-15131619D01*
X11004524Y-15131619D02*
X11014048Y-15169714D01*
X11014048Y-15169714D02*
X11014048Y-15217333D01*
X11014048Y-15217333D02*
X11004524Y-15255428D01*
X11004524Y-15255428D02*
X10995000Y-15274476D01*
X10995000Y-15274476D02*
X10985476Y-15284000D01*
X10985476Y-15284000D02*
X10966429Y-15293524D01*
X10966429Y-15293524D02*
X10947381Y-15293524D01*
X10947381Y-15293524D02*
X10928333Y-15284000D01*
X10928333Y-15284000D02*
X10918810Y-15274476D01*
X10918810Y-15274476D02*
X10909286Y-15255428D01*
X10909286Y-15255428D02*
X10899762Y-15217333D01*
X10899762Y-15217333D02*
X10899762Y-15169714D01*
X10899762Y-15169714D02*
X10909286Y-15131619D01*
X10909286Y-15131619D02*
X10918810Y-15112571D01*
X10918810Y-15112571D02*
X10928333Y-15103048D01*
X10928333Y-15103048D02*
X10947381Y-15093524D01*
X11099762Y-15293524D02*
X11099762Y-15160190D01*
X11099762Y-15179238D02*
X11109286Y-15169714D01*
X11109286Y-15169714D02*
X11128333Y-15160190D01*
X11128333Y-15160190D02*
X11156905Y-15160190D01*
X11156905Y-15160190D02*
X11175952Y-15169714D01*
X11175952Y-15169714D02*
X11185476Y-15188762D01*
X11185476Y-15188762D02*
X11185476Y-15293524D01*
X11185476Y-15188762D02*
X11195000Y-15169714D01*
X11195000Y-15169714D02*
X11214048Y-15160190D01*
X11214048Y-15160190D02*
X11242619Y-15160190D01*
X11242619Y-15160190D02*
X11261667Y-15169714D01*
X11261667Y-15169714D02*
X11271190Y-15188762D01*
X11271190Y-15188762D02*
X11271190Y-15293524D01*
X11366429Y-15293524D02*
X11366429Y-15160190D01*
X11366429Y-15179238D02*
X11375952Y-15169714D01*
X11375952Y-15169714D02*
X11395000Y-15160190D01*
X11395000Y-15160190D02*
X11423571Y-15160190D01*
X11423571Y-15160190D02*
X11442619Y-15169714D01*
X11442619Y-15169714D02*
X11452143Y-15188762D01*
X11452143Y-15188762D02*
X11452143Y-15293524D01*
X11452143Y-15188762D02*
X11461667Y-15169714D01*
X11461667Y-15169714D02*
X11480714Y-15160190D01*
X11480714Y-15160190D02*
X11509286Y-15160190D01*
X11509286Y-15160190D02*
X11528333Y-15169714D01*
X11528333Y-15169714D02*
X11537857Y-15188762D01*
X11537857Y-15188762D02*
X11537857Y-15293524D01*
X11928333Y-15084000D02*
X11756905Y-15341143D01*
X12185476Y-15093524D02*
X12204524Y-15093524D01*
X12204524Y-15093524D02*
X12223572Y-15103048D01*
X12223572Y-15103048D02*
X12233095Y-15112571D01*
X12233095Y-15112571D02*
X12242619Y-15131619D01*
X12242619Y-15131619D02*
X12252143Y-15169714D01*
X12252143Y-15169714D02*
X12252143Y-15217333D01*
X12252143Y-15217333D02*
X12242619Y-15255428D01*
X12242619Y-15255428D02*
X12233095Y-15274476D01*
X12233095Y-15274476D02*
X12223572Y-15284000D01*
X12223572Y-15284000D02*
X12204524Y-15293524D01*
X12204524Y-15293524D02*
X12185476Y-15293524D01*
X12185476Y-15293524D02*
X12166429Y-15284000D01*
X12166429Y-15284000D02*
X12156905Y-15274476D01*
X12156905Y-15274476D02*
X12147381Y-15255428D01*
X12147381Y-15255428D02*
X12137857Y-15217333D01*
X12137857Y-15217333D02*
X12137857Y-15169714D01*
X12137857Y-15169714D02*
X12147381Y-15131619D01*
X12147381Y-15131619D02*
X12156905Y-15112571D01*
X12156905Y-15112571D02*
X12166429Y-15103048D01*
X12166429Y-15103048D02*
X12185476Y-15093524D01*
X12337857Y-15274476D02*
X12347381Y-15284000D01*
X12347381Y-15284000D02*
X12337857Y-15293524D01*
X12337857Y-15293524D02*
X12328333Y-15284000D01*
X12328333Y-15284000D02*
X12337857Y-15274476D01*
X12337857Y-15274476D02*
X12337857Y-15293524D01*
X12471191Y-15093524D02*
X12490238Y-15093524D01*
X12490238Y-15093524D02*
X12509286Y-15103048D01*
X12509286Y-15103048D02*
X12518810Y-15112571D01*
X12518810Y-15112571D02*
X12528333Y-15131619D01*
X12528333Y-15131619D02*
X12537857Y-15169714D01*
X12537857Y-15169714D02*
X12537857Y-15217333D01*
X12537857Y-15217333D02*
X12528333Y-15255428D01*
X12528333Y-15255428D02*
X12518810Y-15274476D01*
X12518810Y-15274476D02*
X12509286Y-15284000D01*
X12509286Y-15284000D02*
X12490238Y-15293524D01*
X12490238Y-15293524D02*
X12471191Y-15293524D01*
X12471191Y-15293524D02*
X12452143Y-15284000D01*
X12452143Y-15284000D02*
X12442619Y-15274476D01*
X12442619Y-15274476D02*
X12433095Y-15255428D01*
X12433095Y-15255428D02*
X12423572Y-15217333D01*
X12423572Y-15217333D02*
X12423572Y-15169714D01*
X12423572Y-15169714D02*
X12433095Y-15131619D01*
X12433095Y-15131619D02*
X12442619Y-15112571D01*
X12442619Y-15112571D02*
X12452143Y-15103048D01*
X12452143Y-15103048D02*
X12471191Y-15093524D01*
X12604524Y-15093524D02*
X12728333Y-15093524D01*
X12728333Y-15093524D02*
X12661667Y-15169714D01*
X12661667Y-15169714D02*
X12690238Y-15169714D01*
X12690238Y-15169714D02*
X12709286Y-15179238D01*
X12709286Y-15179238D02*
X12718810Y-15188762D01*
X12718810Y-15188762D02*
X12728333Y-15207809D01*
X12728333Y-15207809D02*
X12728333Y-15255428D01*
X12728333Y-15255428D02*
X12718810Y-15274476D01*
X12718810Y-15274476D02*
X12709286Y-15284000D01*
X12709286Y-15284000D02*
X12690238Y-15293524D01*
X12690238Y-15293524D02*
X12633095Y-15293524D01*
X12633095Y-15293524D02*
X12614048Y-15284000D01*
X12614048Y-15284000D02*
X12604524Y-15274476D01*
X12823572Y-15293524D02*
X12861667Y-15293524D01*
X12861667Y-15293524D02*
X12880714Y-15284000D01*
X12880714Y-15284000D02*
X12890238Y-15274476D01*
X12890238Y-15274476D02*
X12909286Y-15245905D01*
X12909286Y-15245905D02*
X12918810Y-15207809D01*
X12918810Y-15207809D02*
X12918810Y-15131619D01*
X12918810Y-15131619D02*
X12909286Y-15112571D01*
X12909286Y-15112571D02*
X12899762Y-15103048D01*
X12899762Y-15103048D02*
X12880714Y-15093524D01*
X12880714Y-15093524D02*
X12842619Y-15093524D01*
X12842619Y-15093524D02*
X12823572Y-15103048D01*
X12823572Y-15103048D02*
X12814048Y-15112571D01*
X12814048Y-15112571D02*
X12804524Y-15131619D01*
X12804524Y-15131619D02*
X12804524Y-15179238D01*
X12804524Y-15179238D02*
X12814048Y-15198286D01*
X12814048Y-15198286D02*
X12823572Y-15207809D01*
X12823572Y-15207809D02*
X12842619Y-15217333D01*
X12842619Y-15217333D02*
X12880714Y-15217333D01*
X12880714Y-15217333D02*
X12899762Y-15207809D01*
X12899762Y-15207809D02*
X12909286Y-15198286D01*
X12909286Y-15198286D02*
X12918810Y-15179238D01*
X13090238Y-15160190D02*
X13090238Y-15293524D01*
X13042619Y-15084000D02*
X12995000Y-15226857D01*
X12995000Y-15226857D02*
X13118810Y-15226857D01*
X13185476Y-15093524D02*
X13185476Y-15131619D01*
X13261667Y-15093524D02*
X13261667Y-15131619D01*
X13556905Y-15369714D02*
X13547381Y-15360190D01*
X13547381Y-15360190D02*
X13528334Y-15331619D01*
X13528334Y-15331619D02*
X13518810Y-15312571D01*
X13518810Y-15312571D02*
X13509286Y-15284000D01*
X13509286Y-15284000D02*
X13499762Y-15236381D01*
X13499762Y-15236381D02*
X13499762Y-15198286D01*
X13499762Y-15198286D02*
X13509286Y-15150667D01*
X13509286Y-15150667D02*
X13518810Y-15122095D01*
X13518810Y-15122095D02*
X13528334Y-15103048D01*
X13528334Y-15103048D02*
X13547381Y-15074476D01*
X13547381Y-15074476D02*
X13556905Y-15064952D01*
X13737857Y-15293524D02*
X13623572Y-15293524D01*
X13680714Y-15293524D02*
X13680714Y-15093524D01*
X13680714Y-15093524D02*
X13661667Y-15122095D01*
X13661667Y-15122095D02*
X13642619Y-15141143D01*
X13642619Y-15141143D02*
X13623572Y-15150667D01*
X13909286Y-15160190D02*
X13909286Y-15293524D01*
X13861667Y-15084000D02*
X13814048Y-15226857D01*
X13814048Y-15226857D02*
X13937857Y-15226857D01*
X14166429Y-15293524D02*
X14166429Y-15093524D01*
X14252143Y-15293524D02*
X14252143Y-15188762D01*
X14252143Y-15188762D02*
X14242619Y-15169714D01*
X14242619Y-15169714D02*
X14223572Y-15160190D01*
X14223572Y-15160190D02*
X14195000Y-15160190D01*
X14195000Y-15160190D02*
X14175953Y-15169714D01*
X14175953Y-15169714D02*
X14166429Y-15179238D01*
X14375953Y-15293524D02*
X14356905Y-15284000D01*
X14356905Y-15284000D02*
X14347381Y-15274476D01*
X14347381Y-15274476D02*
X14337857Y-15255428D01*
X14337857Y-15255428D02*
X14337857Y-15198286D01*
X14337857Y-15198286D02*
X14347381Y-15179238D01*
X14347381Y-15179238D02*
X14356905Y-15169714D01*
X14356905Y-15169714D02*
X14375953Y-15160190D01*
X14375953Y-15160190D02*
X14404524Y-15160190D01*
X14404524Y-15160190D02*
X14423572Y-15169714D01*
X14423572Y-15169714D02*
X14433096Y-15179238D01*
X14433096Y-15179238D02*
X14442619Y-15198286D01*
X14442619Y-15198286D02*
X14442619Y-15255428D01*
X14442619Y-15255428D02*
X14433096Y-15274476D01*
X14433096Y-15274476D02*
X14423572Y-15284000D01*
X14423572Y-15284000D02*
X14404524Y-15293524D01*
X14404524Y-15293524D02*
X14375953Y-15293524D01*
X14556905Y-15293524D02*
X14537857Y-15284000D01*
X14537857Y-15284000D02*
X14528334Y-15264952D01*
X14528334Y-15264952D02*
X14528334Y-15093524D01*
X14709286Y-15284000D02*
X14690238Y-15293524D01*
X14690238Y-15293524D02*
X14652143Y-15293524D01*
X14652143Y-15293524D02*
X14633096Y-15284000D01*
X14633096Y-15284000D02*
X14623572Y-15264952D01*
X14623572Y-15264952D02*
X14623572Y-15188762D01*
X14623572Y-15188762D02*
X14633096Y-15169714D01*
X14633096Y-15169714D02*
X14652143Y-15160190D01*
X14652143Y-15160190D02*
X14690238Y-15160190D01*
X14690238Y-15160190D02*
X14709286Y-15169714D01*
X14709286Y-15169714D02*
X14718810Y-15188762D01*
X14718810Y-15188762D02*
X14718810Y-15207809D01*
X14718810Y-15207809D02*
X14623572Y-15226857D01*
X14795000Y-15284000D02*
X14814048Y-15293524D01*
X14814048Y-15293524D02*
X14852143Y-15293524D01*
X14852143Y-15293524D02*
X14871191Y-15284000D01*
X14871191Y-15284000D02*
X14880715Y-15264952D01*
X14880715Y-15264952D02*
X14880715Y-15255428D01*
X14880715Y-15255428D02*
X14871191Y-15236381D01*
X14871191Y-15236381D02*
X14852143Y-15226857D01*
X14852143Y-15226857D02*
X14823572Y-15226857D01*
X14823572Y-15226857D02*
X14804524Y-15217333D01*
X14804524Y-15217333D02*
X14795000Y-15198286D01*
X14795000Y-15198286D02*
X14795000Y-15188762D01*
X14795000Y-15188762D02*
X14804524Y-15169714D01*
X14804524Y-15169714D02*
X14823572Y-15160190D01*
X14823572Y-15160190D02*
X14852143Y-15160190D01*
X14852143Y-15160190D02*
X14871191Y-15169714D01*
X15118810Y-15217333D02*
X15271191Y-15217333D01*
X15195000Y-15293524D02*
X15195000Y-15141143D01*
X15499762Y-15093524D02*
X15623572Y-15093524D01*
X15623572Y-15093524D02*
X15556905Y-15169714D01*
X15556905Y-15169714D02*
X15585477Y-15169714D01*
X15585477Y-15169714D02*
X15604524Y-15179238D01*
X15604524Y-15179238D02*
X15614048Y-15188762D01*
X15614048Y-15188762D02*
X15623572Y-15207809D01*
X15623572Y-15207809D02*
X15623572Y-15255428D01*
X15623572Y-15255428D02*
X15614048Y-15274476D01*
X15614048Y-15274476D02*
X15604524Y-15284000D01*
X15604524Y-15284000D02*
X15585477Y-15293524D01*
X15585477Y-15293524D02*
X15528334Y-15293524D01*
X15528334Y-15293524D02*
X15509286Y-15284000D01*
X15509286Y-15284000D02*
X15499762Y-15274476D01*
X15852143Y-15284000D02*
X15871191Y-15293524D01*
X15871191Y-15293524D02*
X15909286Y-15293524D01*
X15909286Y-15293524D02*
X15928334Y-15284000D01*
X15928334Y-15284000D02*
X15937858Y-15264952D01*
X15937858Y-15264952D02*
X15937858Y-15255428D01*
X15937858Y-15255428D02*
X15928334Y-15236381D01*
X15928334Y-15236381D02*
X15909286Y-15226857D01*
X15909286Y-15226857D02*
X15880715Y-15226857D01*
X15880715Y-15226857D02*
X15861667Y-15217333D01*
X15861667Y-15217333D02*
X15852143Y-15198286D01*
X15852143Y-15198286D02*
X15852143Y-15188762D01*
X15852143Y-15188762D02*
X15861667Y-15169714D01*
X15861667Y-15169714D02*
X15880715Y-15160190D01*
X15880715Y-15160190D02*
X15909286Y-15160190D01*
X15909286Y-15160190D02*
X15928334Y-15169714D01*
X16052143Y-15293524D02*
X16033096Y-15284000D01*
X16033096Y-15284000D02*
X16023572Y-15264952D01*
X16023572Y-15264952D02*
X16023572Y-15093524D01*
X16156905Y-15293524D02*
X16137858Y-15284000D01*
X16137858Y-15284000D02*
X16128334Y-15274476D01*
X16128334Y-15274476D02*
X16118810Y-15255428D01*
X16118810Y-15255428D02*
X16118810Y-15198286D01*
X16118810Y-15198286D02*
X16128334Y-15179238D01*
X16128334Y-15179238D02*
X16137858Y-15169714D01*
X16137858Y-15169714D02*
X16156905Y-15160190D01*
X16156905Y-15160190D02*
X16185477Y-15160190D01*
X16185477Y-15160190D02*
X16204524Y-15169714D01*
X16204524Y-15169714D02*
X16214048Y-15179238D01*
X16214048Y-15179238D02*
X16223572Y-15198286D01*
X16223572Y-15198286D02*
X16223572Y-15255428D01*
X16223572Y-15255428D02*
X16214048Y-15274476D01*
X16214048Y-15274476D02*
X16204524Y-15284000D01*
X16204524Y-15284000D02*
X16185477Y-15293524D01*
X16185477Y-15293524D02*
X16156905Y-15293524D01*
X16280715Y-15160190D02*
X16356905Y-15160190D01*
X16309286Y-15093524D02*
X16309286Y-15264952D01*
X16309286Y-15264952D02*
X16318810Y-15284000D01*
X16318810Y-15284000D02*
X16337858Y-15293524D01*
X16337858Y-15293524D02*
X16356905Y-15293524D01*
X16414048Y-15284000D02*
X16433096Y-15293524D01*
X16433096Y-15293524D02*
X16471191Y-15293524D01*
X16471191Y-15293524D02*
X16490239Y-15284000D01*
X16490239Y-15284000D02*
X16499762Y-15264952D01*
X16499762Y-15264952D02*
X16499762Y-15255428D01*
X16499762Y-15255428D02*
X16490239Y-15236381D01*
X16490239Y-15236381D02*
X16471191Y-15226857D01*
X16471191Y-15226857D02*
X16442620Y-15226857D01*
X16442620Y-15226857D02*
X16423572Y-15217333D01*
X16423572Y-15217333D02*
X16414048Y-15198286D01*
X16414048Y-15198286D02*
X16414048Y-15188762D01*
X16414048Y-15188762D02*
X16423572Y-15169714D01*
X16423572Y-15169714D02*
X16442620Y-15160190D01*
X16442620Y-15160190D02*
X16471191Y-15160190D01*
X16471191Y-15160190D02*
X16490239Y-15169714D01*
X16566429Y-15369714D02*
X16575953Y-15360190D01*
X16575953Y-15360190D02*
X16595001Y-15331619D01*
X16595001Y-15331619D02*
X16604524Y-15312571D01*
X16604524Y-15312571D02*
X16614048Y-15284000D01*
X16614048Y-15284000D02*
X16623572Y-15236381D01*
X16623572Y-15236381D02*
X16623572Y-15198286D01*
X16623572Y-15198286D02*
X16614048Y-15150667D01*
X16614048Y-15150667D02*
X16604524Y-15122095D01*
X16604524Y-15122095D02*
X16595001Y-15103048D01*
X16595001Y-15103048D02*
X16575953Y-15074476D01*
X16575953Y-15074476D02*
X16566429Y-15064952D01*
M02*
