%TF.GenerationSoftware,KiCad,Pcbnew,7.0.1*%
%TF.CreationDate,2023-04-06T23:33:11+08:00*%
%TF.ProjectId,Warehouse-on-STM32,57617265-686f-4757-9365-2d6f6e2d5354,rev?*%
%TF.SameCoordinates,Original*%
%TF.FileFunction,Drillmap*%
%TF.FilePolarity,Positive*%
%FSLAX45Y45*%
G04 Gerber Fmt 4.5, Leading zero omitted, Abs format (unit mm)*
G04 Created by KiCad (PCBNEW 7.0.1) date 2023-04-06 23:33:11*
%MOMM*%
%LPD*%
G01*
G04 APERTURE LIST*
%ADD10C,0.100000*%
%ADD11C,0.200000*%
%ADD12C,0.070000*%
G04 APERTURE END LIST*
D10*
X15200000Y-13500000D02*
G75*
G03*
X15300000Y-13400000I0J100000D01*
G01*
X10000000Y-10100000D02*
X10000000Y-13400000D01*
X10000000Y-13400000D02*
G75*
G03*
X10100000Y-13500000I100000J0D01*
G01*
X15300000Y-10100000D02*
G75*
G03*
X15200000Y-10000000I-100000J0D01*
G01*
X10100000Y-10000000D02*
G75*
G03*
X10000000Y-10100000I0J-100000D01*
G01*
X15200000Y-10000000D02*
X10100000Y-10000000D01*
X10100000Y-13500000D02*
X15200000Y-13500000D01*
X15300000Y-13400000D02*
X15300000Y-10100000D01*
D11*
D12*
X12780000Y-13125000D02*
X12850000Y-13195000D01*
X12850000Y-13125000D02*
X12780000Y-13195000D01*
X12950000Y-13125000D02*
X13020000Y-13195000D01*
X13020000Y-13125000D02*
X12950000Y-13195000D01*
X13180000Y-13125000D02*
X13250000Y-13195000D01*
X13250000Y-13125000D02*
X13180000Y-13195000D01*
X13350000Y-13125000D02*
X13420000Y-13195000D01*
X13420000Y-13125000D02*
X13350000Y-13195000D01*
X13580000Y-13125000D02*
X13650000Y-13195000D01*
X13650000Y-13125000D02*
X13580000Y-13195000D01*
X13750000Y-13125000D02*
X13820000Y-13195000D01*
X13820000Y-13125000D02*
X13750000Y-13195000D01*
X13980000Y-13125000D02*
X14050000Y-13195000D01*
X14050000Y-13125000D02*
X13980000Y-13195000D01*
X14150000Y-13125000D02*
X14220000Y-13195000D01*
X14220000Y-13125000D02*
X14150000Y-13195000D01*
D11*
X10242619Y-13817524D02*
X10242619Y-13617524D01*
X10242619Y-13617524D02*
X10290238Y-13617524D01*
X10290238Y-13617524D02*
X10318810Y-13627048D01*
X10318810Y-13627048D02*
X10337857Y-13646095D01*
X10337857Y-13646095D02*
X10347381Y-13665143D01*
X10347381Y-13665143D02*
X10356905Y-13703238D01*
X10356905Y-13703238D02*
X10356905Y-13731809D01*
X10356905Y-13731809D02*
X10347381Y-13769905D01*
X10347381Y-13769905D02*
X10337857Y-13788952D01*
X10337857Y-13788952D02*
X10318810Y-13808000D01*
X10318810Y-13808000D02*
X10290238Y-13817524D01*
X10290238Y-13817524D02*
X10242619Y-13817524D01*
X10442619Y-13817524D02*
X10442619Y-13684190D01*
X10442619Y-13722286D02*
X10452143Y-13703238D01*
X10452143Y-13703238D02*
X10461667Y-13693714D01*
X10461667Y-13693714D02*
X10480714Y-13684190D01*
X10480714Y-13684190D02*
X10499762Y-13684190D01*
X10566429Y-13817524D02*
X10566429Y-13684190D01*
X10566429Y-13617524D02*
X10556905Y-13627048D01*
X10556905Y-13627048D02*
X10566429Y-13636571D01*
X10566429Y-13636571D02*
X10575952Y-13627048D01*
X10575952Y-13627048D02*
X10566429Y-13617524D01*
X10566429Y-13617524D02*
X10566429Y-13636571D01*
X10690238Y-13817524D02*
X10671190Y-13808000D01*
X10671190Y-13808000D02*
X10661667Y-13788952D01*
X10661667Y-13788952D02*
X10661667Y-13617524D01*
X10795000Y-13817524D02*
X10775952Y-13808000D01*
X10775952Y-13808000D02*
X10766429Y-13788952D01*
X10766429Y-13788952D02*
X10766429Y-13617524D01*
X11023571Y-13817524D02*
X11023571Y-13617524D01*
X11023571Y-13617524D02*
X11090238Y-13760381D01*
X11090238Y-13760381D02*
X11156905Y-13617524D01*
X11156905Y-13617524D02*
X11156905Y-13817524D01*
X11337857Y-13817524D02*
X11337857Y-13712762D01*
X11337857Y-13712762D02*
X11328333Y-13693714D01*
X11328333Y-13693714D02*
X11309286Y-13684190D01*
X11309286Y-13684190D02*
X11271190Y-13684190D01*
X11271190Y-13684190D02*
X11252143Y-13693714D01*
X11337857Y-13808000D02*
X11318809Y-13817524D01*
X11318809Y-13817524D02*
X11271190Y-13817524D01*
X11271190Y-13817524D02*
X11252143Y-13808000D01*
X11252143Y-13808000D02*
X11242619Y-13788952D01*
X11242619Y-13788952D02*
X11242619Y-13769905D01*
X11242619Y-13769905D02*
X11252143Y-13750857D01*
X11252143Y-13750857D02*
X11271190Y-13741333D01*
X11271190Y-13741333D02*
X11318809Y-13741333D01*
X11318809Y-13741333D02*
X11337857Y-13731809D01*
X11433095Y-13684190D02*
X11433095Y-13884190D01*
X11433095Y-13693714D02*
X11452143Y-13684190D01*
X11452143Y-13684190D02*
X11490238Y-13684190D01*
X11490238Y-13684190D02*
X11509286Y-13693714D01*
X11509286Y-13693714D02*
X11518809Y-13703238D01*
X11518809Y-13703238D02*
X11528333Y-13722286D01*
X11528333Y-13722286D02*
X11528333Y-13779428D01*
X11528333Y-13779428D02*
X11518809Y-13798476D01*
X11518809Y-13798476D02*
X11509286Y-13808000D01*
X11509286Y-13808000D02*
X11490238Y-13817524D01*
X11490238Y-13817524D02*
X11452143Y-13817524D01*
X11452143Y-13817524D02*
X11433095Y-13808000D01*
X11614048Y-13798476D02*
X11623571Y-13808000D01*
X11623571Y-13808000D02*
X11614048Y-13817524D01*
X11614048Y-13817524D02*
X11604524Y-13808000D01*
X11604524Y-13808000D02*
X11614048Y-13798476D01*
X11614048Y-13798476D02*
X11614048Y-13817524D01*
X11614048Y-13693714D02*
X11623571Y-13703238D01*
X11623571Y-13703238D02*
X11614048Y-13712762D01*
X11614048Y-13712762D02*
X11604524Y-13703238D01*
X11604524Y-13703238D02*
X11614048Y-13693714D01*
X11614048Y-13693714D02*
X11614048Y-13712762D01*
D12*
X9925000Y-14110000D02*
X9995000Y-14180000D01*
X9995000Y-14110000D02*
X9925000Y-14180000D01*
D11*
X10280714Y-14037524D02*
X10299762Y-14037524D01*
X10299762Y-14037524D02*
X10318810Y-14047048D01*
X10318810Y-14047048D02*
X10328333Y-14056571D01*
X10328333Y-14056571D02*
X10337857Y-14075619D01*
X10337857Y-14075619D02*
X10347381Y-14113714D01*
X10347381Y-14113714D02*
X10347381Y-14161333D01*
X10347381Y-14161333D02*
X10337857Y-14199428D01*
X10337857Y-14199428D02*
X10328333Y-14218476D01*
X10328333Y-14218476D02*
X10318810Y-14228000D01*
X10318810Y-14228000D02*
X10299762Y-14237524D01*
X10299762Y-14237524D02*
X10280714Y-14237524D01*
X10280714Y-14237524D02*
X10261667Y-14228000D01*
X10261667Y-14228000D02*
X10252143Y-14218476D01*
X10252143Y-14218476D02*
X10242619Y-14199428D01*
X10242619Y-14199428D02*
X10233095Y-14161333D01*
X10233095Y-14161333D02*
X10233095Y-14113714D01*
X10233095Y-14113714D02*
X10242619Y-14075619D01*
X10242619Y-14075619D02*
X10252143Y-14056571D01*
X10252143Y-14056571D02*
X10261667Y-14047048D01*
X10261667Y-14047048D02*
X10280714Y-14037524D01*
X10433095Y-14218476D02*
X10442619Y-14228000D01*
X10442619Y-14228000D02*
X10433095Y-14237524D01*
X10433095Y-14237524D02*
X10423571Y-14228000D01*
X10423571Y-14228000D02*
X10433095Y-14218476D01*
X10433095Y-14218476D02*
X10433095Y-14237524D01*
X10509286Y-14037524D02*
X10642619Y-14037524D01*
X10642619Y-14037524D02*
X10556905Y-14237524D01*
X10756905Y-14037524D02*
X10775952Y-14037524D01*
X10775952Y-14037524D02*
X10795000Y-14047048D01*
X10795000Y-14047048D02*
X10804524Y-14056571D01*
X10804524Y-14056571D02*
X10814048Y-14075619D01*
X10814048Y-14075619D02*
X10823571Y-14113714D01*
X10823571Y-14113714D02*
X10823571Y-14161333D01*
X10823571Y-14161333D02*
X10814048Y-14199428D01*
X10814048Y-14199428D02*
X10804524Y-14218476D01*
X10804524Y-14218476D02*
X10795000Y-14228000D01*
X10795000Y-14228000D02*
X10775952Y-14237524D01*
X10775952Y-14237524D02*
X10756905Y-14237524D01*
X10756905Y-14237524D02*
X10737857Y-14228000D01*
X10737857Y-14228000D02*
X10728333Y-14218476D01*
X10728333Y-14218476D02*
X10718810Y-14199428D01*
X10718810Y-14199428D02*
X10709286Y-14161333D01*
X10709286Y-14161333D02*
X10709286Y-14113714D01*
X10709286Y-14113714D02*
X10718810Y-14075619D01*
X10718810Y-14075619D02*
X10728333Y-14056571D01*
X10728333Y-14056571D02*
X10737857Y-14047048D01*
X10737857Y-14047048D02*
X10756905Y-14037524D01*
X10947381Y-14037524D02*
X10966429Y-14037524D01*
X10966429Y-14037524D02*
X10985476Y-14047048D01*
X10985476Y-14047048D02*
X10995000Y-14056571D01*
X10995000Y-14056571D02*
X11004524Y-14075619D01*
X11004524Y-14075619D02*
X11014048Y-14113714D01*
X11014048Y-14113714D02*
X11014048Y-14161333D01*
X11014048Y-14161333D02*
X11004524Y-14199428D01*
X11004524Y-14199428D02*
X10995000Y-14218476D01*
X10995000Y-14218476D02*
X10985476Y-14228000D01*
X10985476Y-14228000D02*
X10966429Y-14237524D01*
X10966429Y-14237524D02*
X10947381Y-14237524D01*
X10947381Y-14237524D02*
X10928333Y-14228000D01*
X10928333Y-14228000D02*
X10918810Y-14218476D01*
X10918810Y-14218476D02*
X10909286Y-14199428D01*
X10909286Y-14199428D02*
X10899762Y-14161333D01*
X10899762Y-14161333D02*
X10899762Y-14113714D01*
X10899762Y-14113714D02*
X10909286Y-14075619D01*
X10909286Y-14075619D02*
X10918810Y-14056571D01*
X10918810Y-14056571D02*
X10928333Y-14047048D01*
X10928333Y-14047048D02*
X10947381Y-14037524D01*
X11099762Y-14237524D02*
X11099762Y-14104190D01*
X11099762Y-14123238D02*
X11109286Y-14113714D01*
X11109286Y-14113714D02*
X11128333Y-14104190D01*
X11128333Y-14104190D02*
X11156905Y-14104190D01*
X11156905Y-14104190D02*
X11175952Y-14113714D01*
X11175952Y-14113714D02*
X11185476Y-14132762D01*
X11185476Y-14132762D02*
X11185476Y-14237524D01*
X11185476Y-14132762D02*
X11195000Y-14113714D01*
X11195000Y-14113714D02*
X11214048Y-14104190D01*
X11214048Y-14104190D02*
X11242619Y-14104190D01*
X11242619Y-14104190D02*
X11261667Y-14113714D01*
X11261667Y-14113714D02*
X11271190Y-14132762D01*
X11271190Y-14132762D02*
X11271190Y-14237524D01*
X11366429Y-14237524D02*
X11366429Y-14104190D01*
X11366429Y-14123238D02*
X11375952Y-14113714D01*
X11375952Y-14113714D02*
X11395000Y-14104190D01*
X11395000Y-14104190D02*
X11423571Y-14104190D01*
X11423571Y-14104190D02*
X11442619Y-14113714D01*
X11442619Y-14113714D02*
X11452143Y-14132762D01*
X11452143Y-14132762D02*
X11452143Y-14237524D01*
X11452143Y-14132762D02*
X11461667Y-14113714D01*
X11461667Y-14113714D02*
X11480714Y-14104190D01*
X11480714Y-14104190D02*
X11509286Y-14104190D01*
X11509286Y-14104190D02*
X11528333Y-14113714D01*
X11528333Y-14113714D02*
X11537857Y-14132762D01*
X11537857Y-14132762D02*
X11537857Y-14237524D01*
X11928333Y-14028000D02*
X11756905Y-14285143D01*
X12185476Y-14037524D02*
X12204524Y-14037524D01*
X12204524Y-14037524D02*
X12223572Y-14047048D01*
X12223572Y-14047048D02*
X12233095Y-14056571D01*
X12233095Y-14056571D02*
X12242619Y-14075619D01*
X12242619Y-14075619D02*
X12252143Y-14113714D01*
X12252143Y-14113714D02*
X12252143Y-14161333D01*
X12252143Y-14161333D02*
X12242619Y-14199428D01*
X12242619Y-14199428D02*
X12233095Y-14218476D01*
X12233095Y-14218476D02*
X12223572Y-14228000D01*
X12223572Y-14228000D02*
X12204524Y-14237524D01*
X12204524Y-14237524D02*
X12185476Y-14237524D01*
X12185476Y-14237524D02*
X12166429Y-14228000D01*
X12166429Y-14228000D02*
X12156905Y-14218476D01*
X12156905Y-14218476D02*
X12147381Y-14199428D01*
X12147381Y-14199428D02*
X12137857Y-14161333D01*
X12137857Y-14161333D02*
X12137857Y-14113714D01*
X12137857Y-14113714D02*
X12147381Y-14075619D01*
X12147381Y-14075619D02*
X12156905Y-14056571D01*
X12156905Y-14056571D02*
X12166429Y-14047048D01*
X12166429Y-14047048D02*
X12185476Y-14037524D01*
X12337857Y-14218476D02*
X12347381Y-14228000D01*
X12347381Y-14228000D02*
X12337857Y-14237524D01*
X12337857Y-14237524D02*
X12328333Y-14228000D01*
X12328333Y-14228000D02*
X12337857Y-14218476D01*
X12337857Y-14218476D02*
X12337857Y-14237524D01*
X12471191Y-14037524D02*
X12490238Y-14037524D01*
X12490238Y-14037524D02*
X12509286Y-14047048D01*
X12509286Y-14047048D02*
X12518810Y-14056571D01*
X12518810Y-14056571D02*
X12528333Y-14075619D01*
X12528333Y-14075619D02*
X12537857Y-14113714D01*
X12537857Y-14113714D02*
X12537857Y-14161333D01*
X12537857Y-14161333D02*
X12528333Y-14199428D01*
X12528333Y-14199428D02*
X12518810Y-14218476D01*
X12518810Y-14218476D02*
X12509286Y-14228000D01*
X12509286Y-14228000D02*
X12490238Y-14237524D01*
X12490238Y-14237524D02*
X12471191Y-14237524D01*
X12471191Y-14237524D02*
X12452143Y-14228000D01*
X12452143Y-14228000D02*
X12442619Y-14218476D01*
X12442619Y-14218476D02*
X12433095Y-14199428D01*
X12433095Y-14199428D02*
X12423572Y-14161333D01*
X12423572Y-14161333D02*
X12423572Y-14113714D01*
X12423572Y-14113714D02*
X12433095Y-14075619D01*
X12433095Y-14075619D02*
X12442619Y-14056571D01*
X12442619Y-14056571D02*
X12452143Y-14047048D01*
X12452143Y-14047048D02*
X12471191Y-14037524D01*
X12614048Y-14056571D02*
X12623572Y-14047048D01*
X12623572Y-14047048D02*
X12642619Y-14037524D01*
X12642619Y-14037524D02*
X12690238Y-14037524D01*
X12690238Y-14037524D02*
X12709286Y-14047048D01*
X12709286Y-14047048D02*
X12718810Y-14056571D01*
X12718810Y-14056571D02*
X12728333Y-14075619D01*
X12728333Y-14075619D02*
X12728333Y-14094667D01*
X12728333Y-14094667D02*
X12718810Y-14123238D01*
X12718810Y-14123238D02*
X12604524Y-14237524D01*
X12604524Y-14237524D02*
X12728333Y-14237524D01*
X12795000Y-14037524D02*
X12928333Y-14037524D01*
X12928333Y-14037524D02*
X12842619Y-14237524D01*
X13090238Y-14037524D02*
X13052143Y-14037524D01*
X13052143Y-14037524D02*
X13033095Y-14047048D01*
X13033095Y-14047048D02*
X13023572Y-14056571D01*
X13023572Y-14056571D02*
X13004524Y-14085143D01*
X13004524Y-14085143D02*
X12995000Y-14123238D01*
X12995000Y-14123238D02*
X12995000Y-14199428D01*
X12995000Y-14199428D02*
X13004524Y-14218476D01*
X13004524Y-14218476D02*
X13014048Y-14228000D01*
X13014048Y-14228000D02*
X13033095Y-14237524D01*
X13033095Y-14237524D02*
X13071191Y-14237524D01*
X13071191Y-14237524D02*
X13090238Y-14228000D01*
X13090238Y-14228000D02*
X13099762Y-14218476D01*
X13099762Y-14218476D02*
X13109286Y-14199428D01*
X13109286Y-14199428D02*
X13109286Y-14151809D01*
X13109286Y-14151809D02*
X13099762Y-14132762D01*
X13099762Y-14132762D02*
X13090238Y-14123238D01*
X13090238Y-14123238D02*
X13071191Y-14113714D01*
X13071191Y-14113714D02*
X13033095Y-14113714D01*
X13033095Y-14113714D02*
X13014048Y-14123238D01*
X13014048Y-14123238D02*
X13004524Y-14132762D01*
X13004524Y-14132762D02*
X12995000Y-14151809D01*
X13185476Y-14037524D02*
X13185476Y-14075619D01*
X13261667Y-14037524D02*
X13261667Y-14075619D01*
X13556905Y-14313714D02*
X13547381Y-14304190D01*
X13547381Y-14304190D02*
X13528334Y-14275619D01*
X13528334Y-14275619D02*
X13518810Y-14256571D01*
X13518810Y-14256571D02*
X13509286Y-14228000D01*
X13509286Y-14228000D02*
X13499762Y-14180381D01*
X13499762Y-14180381D02*
X13499762Y-14142286D01*
X13499762Y-14142286D02*
X13509286Y-14094667D01*
X13509286Y-14094667D02*
X13518810Y-14066095D01*
X13518810Y-14066095D02*
X13528334Y-14047048D01*
X13528334Y-14047048D02*
X13547381Y-14018476D01*
X13547381Y-14018476D02*
X13556905Y-14008952D01*
X13661667Y-14123238D02*
X13642619Y-14113714D01*
X13642619Y-14113714D02*
X13633095Y-14104190D01*
X13633095Y-14104190D02*
X13623572Y-14085143D01*
X13623572Y-14085143D02*
X13623572Y-14075619D01*
X13623572Y-14075619D02*
X13633095Y-14056571D01*
X13633095Y-14056571D02*
X13642619Y-14047048D01*
X13642619Y-14047048D02*
X13661667Y-14037524D01*
X13661667Y-14037524D02*
X13699762Y-14037524D01*
X13699762Y-14037524D02*
X13718810Y-14047048D01*
X13718810Y-14047048D02*
X13728334Y-14056571D01*
X13728334Y-14056571D02*
X13737857Y-14075619D01*
X13737857Y-14075619D02*
X13737857Y-14085143D01*
X13737857Y-14085143D02*
X13728334Y-14104190D01*
X13728334Y-14104190D02*
X13718810Y-14113714D01*
X13718810Y-14113714D02*
X13699762Y-14123238D01*
X13699762Y-14123238D02*
X13661667Y-14123238D01*
X13661667Y-14123238D02*
X13642619Y-14132762D01*
X13642619Y-14132762D02*
X13633095Y-14142286D01*
X13633095Y-14142286D02*
X13623572Y-14161333D01*
X13623572Y-14161333D02*
X13623572Y-14199428D01*
X13623572Y-14199428D02*
X13633095Y-14218476D01*
X13633095Y-14218476D02*
X13642619Y-14228000D01*
X13642619Y-14228000D02*
X13661667Y-14237524D01*
X13661667Y-14237524D02*
X13699762Y-14237524D01*
X13699762Y-14237524D02*
X13718810Y-14228000D01*
X13718810Y-14228000D02*
X13728334Y-14218476D01*
X13728334Y-14218476D02*
X13737857Y-14199428D01*
X13737857Y-14199428D02*
X13737857Y-14161333D01*
X13737857Y-14161333D02*
X13728334Y-14142286D01*
X13728334Y-14142286D02*
X13718810Y-14132762D01*
X13718810Y-14132762D02*
X13699762Y-14123238D01*
X13975953Y-14237524D02*
X13975953Y-14037524D01*
X14061667Y-14237524D02*
X14061667Y-14132762D01*
X14061667Y-14132762D02*
X14052143Y-14113714D01*
X14052143Y-14113714D02*
X14033096Y-14104190D01*
X14033096Y-14104190D02*
X14004524Y-14104190D01*
X14004524Y-14104190D02*
X13985476Y-14113714D01*
X13985476Y-14113714D02*
X13975953Y-14123238D01*
X14185476Y-14237524D02*
X14166429Y-14228000D01*
X14166429Y-14228000D02*
X14156905Y-14218476D01*
X14156905Y-14218476D02*
X14147381Y-14199428D01*
X14147381Y-14199428D02*
X14147381Y-14142286D01*
X14147381Y-14142286D02*
X14156905Y-14123238D01*
X14156905Y-14123238D02*
X14166429Y-14113714D01*
X14166429Y-14113714D02*
X14185476Y-14104190D01*
X14185476Y-14104190D02*
X14214048Y-14104190D01*
X14214048Y-14104190D02*
X14233096Y-14113714D01*
X14233096Y-14113714D02*
X14242619Y-14123238D01*
X14242619Y-14123238D02*
X14252143Y-14142286D01*
X14252143Y-14142286D02*
X14252143Y-14199428D01*
X14252143Y-14199428D02*
X14242619Y-14218476D01*
X14242619Y-14218476D02*
X14233096Y-14228000D01*
X14233096Y-14228000D02*
X14214048Y-14237524D01*
X14214048Y-14237524D02*
X14185476Y-14237524D01*
X14366429Y-14237524D02*
X14347381Y-14228000D01*
X14347381Y-14228000D02*
X14337857Y-14208952D01*
X14337857Y-14208952D02*
X14337857Y-14037524D01*
X14518810Y-14228000D02*
X14499762Y-14237524D01*
X14499762Y-14237524D02*
X14461667Y-14237524D01*
X14461667Y-14237524D02*
X14442619Y-14228000D01*
X14442619Y-14228000D02*
X14433096Y-14208952D01*
X14433096Y-14208952D02*
X14433096Y-14132762D01*
X14433096Y-14132762D02*
X14442619Y-14113714D01*
X14442619Y-14113714D02*
X14461667Y-14104190D01*
X14461667Y-14104190D02*
X14499762Y-14104190D01*
X14499762Y-14104190D02*
X14518810Y-14113714D01*
X14518810Y-14113714D02*
X14528334Y-14132762D01*
X14528334Y-14132762D02*
X14528334Y-14151809D01*
X14528334Y-14151809D02*
X14433096Y-14170857D01*
X14604524Y-14228000D02*
X14623572Y-14237524D01*
X14623572Y-14237524D02*
X14661667Y-14237524D01*
X14661667Y-14237524D02*
X14680715Y-14228000D01*
X14680715Y-14228000D02*
X14690238Y-14208952D01*
X14690238Y-14208952D02*
X14690238Y-14199428D01*
X14690238Y-14199428D02*
X14680715Y-14180381D01*
X14680715Y-14180381D02*
X14661667Y-14170857D01*
X14661667Y-14170857D02*
X14633096Y-14170857D01*
X14633096Y-14170857D02*
X14614048Y-14161333D01*
X14614048Y-14161333D02*
X14604524Y-14142286D01*
X14604524Y-14142286D02*
X14604524Y-14132762D01*
X14604524Y-14132762D02*
X14614048Y-14113714D01*
X14614048Y-14113714D02*
X14633096Y-14104190D01*
X14633096Y-14104190D02*
X14661667Y-14104190D01*
X14661667Y-14104190D02*
X14680715Y-14113714D01*
X14756905Y-14313714D02*
X14766429Y-14304190D01*
X14766429Y-14304190D02*
X14785477Y-14275619D01*
X14785477Y-14275619D02*
X14795000Y-14256571D01*
X14795000Y-14256571D02*
X14804524Y-14228000D01*
X14804524Y-14228000D02*
X14814048Y-14180381D01*
X14814048Y-14180381D02*
X14814048Y-14142286D01*
X14814048Y-14142286D02*
X14804524Y-14094667D01*
X14804524Y-14094667D02*
X14795000Y-14066095D01*
X14795000Y-14066095D02*
X14785477Y-14047048D01*
X14785477Y-14047048D02*
X14766429Y-14018476D01*
X14766429Y-14018476D02*
X14756905Y-14008952D01*
X15118810Y-14313714D02*
X15109286Y-14304190D01*
X15109286Y-14304190D02*
X15090238Y-14275619D01*
X15090238Y-14275619D02*
X15080715Y-14256571D01*
X15080715Y-14256571D02*
X15071191Y-14228000D01*
X15071191Y-14228000D02*
X15061667Y-14180381D01*
X15061667Y-14180381D02*
X15061667Y-14142286D01*
X15061667Y-14142286D02*
X15071191Y-14094667D01*
X15071191Y-14094667D02*
X15080715Y-14066095D01*
X15080715Y-14066095D02*
X15090238Y-14047048D01*
X15090238Y-14047048D02*
X15109286Y-14018476D01*
X15109286Y-14018476D02*
X15118810Y-14008952D01*
X15195000Y-14104190D02*
X15195000Y-14237524D01*
X15195000Y-14123238D02*
X15204524Y-14113714D01*
X15204524Y-14113714D02*
X15223572Y-14104190D01*
X15223572Y-14104190D02*
X15252143Y-14104190D01*
X15252143Y-14104190D02*
X15271191Y-14113714D01*
X15271191Y-14113714D02*
X15280715Y-14132762D01*
X15280715Y-14132762D02*
X15280715Y-14237524D01*
X15404524Y-14237524D02*
X15385477Y-14228000D01*
X15385477Y-14228000D02*
X15375953Y-14218476D01*
X15375953Y-14218476D02*
X15366429Y-14199428D01*
X15366429Y-14199428D02*
X15366429Y-14142286D01*
X15366429Y-14142286D02*
X15375953Y-14123238D01*
X15375953Y-14123238D02*
X15385477Y-14113714D01*
X15385477Y-14113714D02*
X15404524Y-14104190D01*
X15404524Y-14104190D02*
X15433096Y-14104190D01*
X15433096Y-14104190D02*
X15452143Y-14113714D01*
X15452143Y-14113714D02*
X15461667Y-14123238D01*
X15461667Y-14123238D02*
X15471191Y-14142286D01*
X15471191Y-14142286D02*
X15471191Y-14199428D01*
X15471191Y-14199428D02*
X15461667Y-14218476D01*
X15461667Y-14218476D02*
X15452143Y-14228000D01*
X15452143Y-14228000D02*
X15433096Y-14237524D01*
X15433096Y-14237524D02*
X15404524Y-14237524D01*
X15528334Y-14104190D02*
X15604524Y-14104190D01*
X15556905Y-14037524D02*
X15556905Y-14208952D01*
X15556905Y-14208952D02*
X15566429Y-14228000D01*
X15566429Y-14228000D02*
X15585477Y-14237524D01*
X15585477Y-14237524D02*
X15604524Y-14237524D01*
X15823572Y-14104190D02*
X15823572Y-14304190D01*
X15823572Y-14113714D02*
X15842619Y-14104190D01*
X15842619Y-14104190D02*
X15880715Y-14104190D01*
X15880715Y-14104190D02*
X15899762Y-14113714D01*
X15899762Y-14113714D02*
X15909286Y-14123238D01*
X15909286Y-14123238D02*
X15918810Y-14142286D01*
X15918810Y-14142286D02*
X15918810Y-14199428D01*
X15918810Y-14199428D02*
X15909286Y-14218476D01*
X15909286Y-14218476D02*
X15899762Y-14228000D01*
X15899762Y-14228000D02*
X15880715Y-14237524D01*
X15880715Y-14237524D02*
X15842619Y-14237524D01*
X15842619Y-14237524D02*
X15823572Y-14228000D01*
X16033096Y-14237524D02*
X16014048Y-14228000D01*
X16014048Y-14228000D02*
X16004524Y-14208952D01*
X16004524Y-14208952D02*
X16004524Y-14037524D01*
X16195000Y-14237524D02*
X16195000Y-14132762D01*
X16195000Y-14132762D02*
X16185477Y-14113714D01*
X16185477Y-14113714D02*
X16166429Y-14104190D01*
X16166429Y-14104190D02*
X16128334Y-14104190D01*
X16128334Y-14104190D02*
X16109286Y-14113714D01*
X16195000Y-14228000D02*
X16175953Y-14237524D01*
X16175953Y-14237524D02*
X16128334Y-14237524D01*
X16128334Y-14237524D02*
X16109286Y-14228000D01*
X16109286Y-14228000D02*
X16099762Y-14208952D01*
X16099762Y-14208952D02*
X16099762Y-14189905D01*
X16099762Y-14189905D02*
X16109286Y-14170857D01*
X16109286Y-14170857D02*
X16128334Y-14161333D01*
X16128334Y-14161333D02*
X16175953Y-14161333D01*
X16175953Y-14161333D02*
X16195000Y-14151809D01*
X16261667Y-14104190D02*
X16337858Y-14104190D01*
X16290239Y-14037524D02*
X16290239Y-14208952D01*
X16290239Y-14208952D02*
X16299762Y-14228000D01*
X16299762Y-14228000D02*
X16318810Y-14237524D01*
X16318810Y-14237524D02*
X16337858Y-14237524D01*
X16480715Y-14228000D02*
X16461667Y-14237524D01*
X16461667Y-14237524D02*
X16423572Y-14237524D01*
X16423572Y-14237524D02*
X16404524Y-14228000D01*
X16404524Y-14228000D02*
X16395000Y-14208952D01*
X16395000Y-14208952D02*
X16395000Y-14132762D01*
X16395000Y-14132762D02*
X16404524Y-14113714D01*
X16404524Y-14113714D02*
X16423572Y-14104190D01*
X16423572Y-14104190D02*
X16461667Y-14104190D01*
X16461667Y-14104190D02*
X16480715Y-14113714D01*
X16480715Y-14113714D02*
X16490239Y-14132762D01*
X16490239Y-14132762D02*
X16490239Y-14151809D01*
X16490239Y-14151809D02*
X16395000Y-14170857D01*
X16661667Y-14237524D02*
X16661667Y-14037524D01*
X16661667Y-14228000D02*
X16642620Y-14237524D01*
X16642620Y-14237524D02*
X16604524Y-14237524D01*
X16604524Y-14237524D02*
X16585477Y-14228000D01*
X16585477Y-14228000D02*
X16575953Y-14218476D01*
X16575953Y-14218476D02*
X16566429Y-14199428D01*
X16566429Y-14199428D02*
X16566429Y-14142286D01*
X16566429Y-14142286D02*
X16575953Y-14123238D01*
X16575953Y-14123238D02*
X16585477Y-14113714D01*
X16585477Y-14113714D02*
X16604524Y-14104190D01*
X16604524Y-14104190D02*
X16642620Y-14104190D01*
X16642620Y-14104190D02*
X16661667Y-14113714D01*
X16737858Y-14313714D02*
X16747381Y-14304190D01*
X16747381Y-14304190D02*
X16766429Y-14275619D01*
X16766429Y-14275619D02*
X16775953Y-14256571D01*
X16775953Y-14256571D02*
X16785477Y-14228000D01*
X16785477Y-14228000D02*
X16795001Y-14180381D01*
X16795001Y-14180381D02*
X16795001Y-14142286D01*
X16795001Y-14142286D02*
X16785477Y-14094667D01*
X16785477Y-14094667D02*
X16775953Y-14066095D01*
X16775953Y-14066095D02*
X16766429Y-14047048D01*
X16766429Y-14047048D02*
X16747381Y-14018476D01*
X16747381Y-14018476D02*
X16737858Y-14008952D01*
M02*
