M48
; DRILL file {KiCad (7.0.0)} date Wed Apr 19 17:05:02 2023
; FORMAT={-:-/ absolute / inch / decimal}
; #@! TF.CreationDate,2023-04-19T17:05:02+08:00
; #@! TF.GenerationSoftware,Kicad,Pcbnew,(7.0.0)
; #@! TF.FileFunction,Plated,1,2,PTH
FMAT,2
INCH
; #@! TA.AperFunction,Plated,PTH,ViaDrill
T1C0.0039
; #@! TA.AperFunction,Plated,PTH,ViaDrill
T2C0.0079
; #@! TA.AperFunction,Plated,PTH,ComponentDrill
T3C0.0236
; #@! TA.AperFunction,Plated,PTH,ComponentDrill
T4C0.0315
; #@! TA.AperFunction,Plated,PTH,ComponentDrill
T5C0.0394
%
G90
G05
T1
X3.9843Y-5.1181
X4.0157Y-5.1181
X4.0394Y-5.2598
X4.0894Y-5.2413
X4.1535Y-5.1004
X4.1842Y-5.131
X4.189Y-4.6614
X4.2047Y-4.6614
X4.2205Y-4.6614
X4.2283Y-4.622
X4.2362Y-4.6299
X4.2441Y-4.6378
X4.2756Y-4.5118
X4.2874Y-4.9764
X4.315Y-5.0413
X4.3307Y-4.5827
X4.3386Y-4.7795
X4.3524Y-5.1862
X4.3633Y-5.2236
X4.3937Y-5.0413
X4.4787Y-4.976
X4.4936Y-5.1639
X4.5827Y-5.126
X4.5984Y-5.1713
X4.6299Y-4.5984
X4.7067Y-4.9685
X4.7195Y-4.4685
X4.8346Y-5.0866
X4.9016Y-4.4685
X4.9291Y-4.5827
X4.9291Y-4.5984
X4.9291Y-4.6142
X4.9291Y-4.6299
X4.9449Y-4.5669
X4.9449Y-4.5827
X4.9449Y-4.5984
X4.9449Y-4.6142
X4.9449Y-4.6299
X5.0079Y-5.0709
X5.0138Y-4.5236
X5.0335Y-4.8996
X5.0492Y-4.9114
X5.0965Y-4.7657
X5.0984Y-4.8051
X5.1004Y-4.7854
X5.1102Y-4.4803
X5.1307Y-5.0378
X5.1432Y-4.5881
X5.1811Y-4.9626
X5.1988Y-4.9784
X5.3563Y-4.9409
X5.376Y-4.9291
X5.4395Y-4.8804
X5.4626Y-4.4488
X5.4724Y-4.5866
X5.5094Y-4.8803
X5.5591Y-4.748
X5.5669Y-4.7244
X5.7717Y-4.4567
X5.9134Y-4.4882
X5.9213Y-4.5118
X5.9213Y-4.5276
X5.9213Y-4.5433
X5.9291Y-4.4567
X5.9449Y-4.4567
X5.9606Y-4.4567
T2
X4.2441Y-4.5591
X4.3504Y-4.8091
X4.3858Y-4.5591
X4.4213Y-4.8091
X4.4882Y-4.5984
X4.4882Y-4.6457
X4.4882Y-4.6929
X4.4882Y-4.7402
X4.4882Y-4.7638
X4.4882Y-4.7874
X4.4882Y-4.811
X4.5118Y-4.6457
X4.5354Y-4.6457
X4.5591Y-4.6457
X4.5984Y-4.5984
X4.8386Y-4.7598
X4.8583Y-4.2362
X4.8583Y-4.2756
X4.9055Y-4.4016
X4.9055Y-4.4213
X4.937Y-4.2756
X5.0118Y-4.3386
X5.0118Y-4.3622
X5.0354Y-4.3386
X5.0354Y-4.3622
X5.1654Y-4.2756
X5.2047Y-4.2756
X5.252Y-4.2756
X5.5118Y-4.2756
X5.5591Y-4.2756
X5.6063Y-4.2756
X5.8661Y-4.2756
X5.9134Y-4.2756
X5.9606Y-4.2756
T3
X5.7047Y-5.1811
X5.7087Y-4.6831
X5.7087Y-4.7323
X5.7087Y-4.7815
X5.7539Y-5.1811
X5.8031Y-5.1811
X5.8524Y-5.1811
X5.9016Y-5.1811
T5
X5.0984Y-4.1339
X5.1969Y-4.1339
X5.4528Y-4.1339
X5.5512Y-4.1339
X5.8071Y-4.1339
X5.8504Y-4.6685
X5.8504Y-4.7685
X5.8504Y-4.8685
X5.8504Y-4.9685
X5.9055Y-4.1339
X5.9504Y-4.6685
X5.9504Y-4.7685
X5.9504Y-4.8685
X5.9504Y-4.9685
T4
G00X4.0925Y-3.9843
M15
G01X4.0335Y-3.9843
M16
G05
G00X4.0925Y-4.374
M15
G01X4.0335Y-4.374
M16
G05
G00X4.374Y-4.0197
M15
G01X4.3268Y-4.0197
M16
G05
G00X4.374Y-4.2244
M15
G01X4.3268Y-4.2244
M16
G05
G00X4.374Y-4.3583
M15
G01X4.3268Y-4.3583
M16
G05
T5
G00X4.5157Y-4.1299
M15
G01X4.5157Y-4.0984
M16
G05
G00X4.7008Y-4.1299
M15
G01X4.7008Y-4.0984
M16
G05
G00X4.8858Y-4.1299
M15
G01X4.8858Y-4.0984
M16
G05
T0
M30
