%TF.GenerationSoftware,KiCad,Pcbnew,(7.0.0)*%
%TF.CreationDate,2023-04-07T10:01:58+08:00*%
%TF.ProjectId,Warehouse-on-STM32,57617265-686f-4757-9365-2d6f6e2d5354,rev?*%
%TF.SameCoordinates,Original*%
%TF.FileFunction,Soldermask,Top*%
%TF.FilePolarity,Negative*%
%FSLAX46Y46*%
G04 Gerber Fmt 4.6, Leading zero omitted, Abs format (unit mm)*
G04 Created by KiCad (PCBNEW (7.0.0)) date 2023-04-07 10:01:58*
%MOMM*%
%LPD*%
G01*
G04 APERTURE LIST*
G04 Aperture macros list*
%AMRoundRect*
0 Rectangle with rounded corners*
0 $1 Rounding radius*
0 $2 $3 $4 $5 $6 $7 $8 $9 X,Y pos of 4 corners*
0 Add a 4 corners polygon primitive as box body*
4,1,4,$2,$3,$4,$5,$6,$7,$8,$9,$2,$3,0*
0 Add four circle primitives for the rounded corners*
1,1,$1+$1,$2,$3*
1,1,$1+$1,$4,$5*
1,1,$1+$1,$6,$7*
1,1,$1+$1,$8,$9*
0 Add four rect primitives between the rounded corners*
20,1,$1+$1,$2,$3,$4,$5,0*
20,1,$1+$1,$4,$5,$6,$7,0*
20,1,$1+$1,$6,$7,$8,$9,0*
20,1,$1+$1,$8,$9,$2,$3,0*%
%AMOutline5P*
0 Free polygon, 5 corners , with rotation*
0 The origin of the aperture is its center*
0 number of corners: always 5*
0 $1 to $10 corner X, Y*
0 $11 Rotation angle, in degrees counterclockwise*
0 create outline with 5 corners*
4,1,5,$1,$2,$3,$4,$5,$6,$7,$8,$9,$10,$1,$2,$11*%
%AMOutline6P*
0 Free polygon, 6 corners , with rotation*
0 The origin of the aperture is its center*
0 number of corners: always 6*
0 $1 to $12 corner X, Y*
0 $13 Rotation angle, in degrees counterclockwise*
0 create outline with 6 corners*
4,1,6,$1,$2,$3,$4,$5,$6,$7,$8,$9,$10,$11,$12,$1,$2,$13*%
%AMOutline7P*
0 Free polygon, 7 corners , with rotation*
0 The origin of the aperture is its center*
0 number of corners: always 7*
0 $1 to $14 corner X, Y*
0 $15 Rotation angle, in degrees counterclockwise*
0 create outline with 7 corners*
4,1,7,$1,$2,$3,$4,$5,$6,$7,$8,$9,$10,$11,$12,$13,$14,$1,$2,$15*%
%AMOutline8P*
0 Free polygon, 8 corners , with rotation*
0 The origin of the aperture is its center*
0 number of corners: always 8*
0 $1 to $16 corner X, Y*
0 $17 Rotation angle, in degrees counterclockwise*
0 create outline with 8 corners*
4,1,8,$1,$2,$3,$4,$5,$6,$7,$8,$9,$10,$11,$12,$13,$14,$15,$16,$1,$2,$17*%
G04 Aperture macros list end*
%ADD10RoundRect,0.140000X-0.140000X-0.170000X0.140000X-0.170000X0.140000X0.170000X-0.140000X0.170000X0*%
%ADD11R,0.250000X0.500000*%
%ADD12R,1.600000X0.900000*%
%ADD13RoundRect,0.250000X0.600000X0.750000X-0.600000X0.750000X-0.600000X-0.750000X0.600000X-0.750000X0*%
%ADD14O,1.700000X2.000000*%
%ADD15RoundRect,0.075000X-0.662500X-0.075000X0.662500X-0.075000X0.662500X0.075000X-0.662500X0.075000X0*%
%ADD16RoundRect,0.075000X-0.075000X-0.662500X0.075000X-0.662500X0.075000X0.662500X-0.075000X0.662500X0*%
%ADD17RoundRect,0.135000X-0.135000X-0.185000X0.135000X-0.185000X0.135000X0.185000X-0.135000X0.185000X0*%
%ADD18RoundRect,0.140000X-0.170000X0.140000X-0.170000X-0.140000X0.170000X-0.140000X0.170000X0.140000X0*%
%ADD19RoundRect,0.100000X-0.100000X0.130000X-0.100000X-0.130000X0.100000X-0.130000X0.100000X0.130000X0*%
%ADD20RoundRect,0.135000X-0.185000X0.135000X-0.185000X-0.135000X0.185000X-0.135000X0.185000X0.135000X0*%
%ADD21RoundRect,0.147500X-0.172500X0.147500X-0.172500X-0.147500X0.172500X-0.147500X0.172500X0.147500X0*%
%ADD22RoundRect,0.250000X0.475000X-0.250000X0.475000X0.250000X-0.475000X0.250000X-0.475000X-0.250000X0*%
%ADD23RoundRect,0.140000X0.140000X0.170000X-0.140000X0.170000X-0.140000X-0.170000X0.140000X-0.170000X0*%
%ADD24C,0.700000*%
%ADD25RoundRect,0.412500X0.537500X-0.312500X0.537500X0.312500X-0.537500X0.312500X-0.537500X-0.312500X0*%
%ADD26Outline5P,-0.750000X0.075000X-0.075000X0.750000X0.750000X0.750000X0.750000X-0.750000X-0.750000X-0.750000X180.000000*%
%ADD27R,1.500000X1.500000*%
%ADD28RoundRect,0.050000X-0.375000X-0.050000X0.375000X-0.050000X0.375000X0.050000X-0.375000X0.050000X0*%
%ADD29RoundRect,0.050000X-0.050000X-0.375000X0.050000X-0.375000X0.050000X0.375000X-0.050000X0.375000X0*%
%ADD30R,1.650000X1.650000*%
%ADD31RoundRect,0.125000X-0.125000X0.537500X-0.125000X-0.537500X0.125000X-0.537500X0.125000X0.537500X0*%
%ADD32RoundRect,0.150000X-0.587500X-0.150000X0.587500X-0.150000X0.587500X0.150000X-0.587500X0.150000X0*%
%ADD33RoundRect,0.250000X-0.700000X0.275000X-0.700000X-0.275000X0.700000X-0.275000X0.700000X0.275000X0*%
%ADD34RoundRect,0.135000X0.135000X0.185000X-0.135000X0.185000X-0.135000X-0.185000X0.135000X-0.185000X0*%
%ADD35RoundRect,0.140000X0.170000X-0.140000X0.170000X0.140000X-0.170000X0.140000X-0.170000X-0.140000X0*%
%ADD36R,0.400000X0.550000*%
%ADD37Outline5P,-0.625000X0.550000X-0.325000X0.850000X0.625000X0.850000X0.625000X-0.850000X-0.625000X-0.850000X270.000000*%
%ADD38R,1.700000X1.700000*%
%ADD39O,1.700000X1.700000*%
%ADD40R,0.850000X0.850000*%
%ADD41O,0.850000X0.850000*%
%ADD42R,1.200000X1.400000*%
%ADD43RoundRect,0.135000X0.185000X-0.135000X0.185000X0.135000X-0.185000X0.135000X-0.185000X-0.135000X0*%
%ADD44RoundRect,0.250000X0.700000X-0.275000X0.700000X0.275000X-0.700000X0.275000X-0.700000X-0.275000X0*%
%ADD45RoundRect,0.250000X-0.475000X0.250000X-0.475000X-0.250000X0.475000X-0.250000X0.475000X0.250000X0*%
%ADD46O,2.380000X1.180000*%
%ADD47O,2.730000X1.180000*%
%ADD48O,1.400000X2.200000*%
%ADD49R,0.550000X0.400000*%
G04 APERTURE END LIST*
D10*
%TO.C,C8*%
X117920000Y-123400000D03*
X118880000Y-123400000D03*
%TD*%
D11*
%TO.C,U5*%
X139749999Y-110249999D03*
X139249999Y-110249999D03*
X138749999Y-110249999D03*
X138249999Y-110249999D03*
X138249999Y-112149999D03*
X138749999Y-112149999D03*
X139249999Y-112149999D03*
X139749999Y-112149999D03*
D12*
X138999999Y-111199999D03*
%TD*%
D13*
%TO.C,J5*%
X141000000Y-105000000D03*
D14*
X138499999Y-104999999D03*
%TD*%
D15*
%TO.C,U1*%
X130637500Y-117050000D03*
X130637500Y-117550000D03*
X130637500Y-118050000D03*
X130637500Y-118550000D03*
X130637500Y-119050000D03*
X130637500Y-119550000D03*
X130637500Y-120050000D03*
X130637500Y-120550000D03*
X130637500Y-121050000D03*
X130637500Y-121550000D03*
X130637500Y-122050000D03*
X130637500Y-122550000D03*
D16*
X132050000Y-123962500D03*
X132550000Y-123962500D03*
X133050000Y-123962500D03*
X133550000Y-123962500D03*
X134050000Y-123962500D03*
X134550000Y-123962500D03*
X135050000Y-123962500D03*
X135550000Y-123962500D03*
X136050000Y-123962500D03*
X136550000Y-123962500D03*
X137050000Y-123962500D03*
X137550000Y-123962500D03*
D15*
X138962500Y-122550000D03*
X138962500Y-122050000D03*
X138962500Y-121550000D03*
X138962500Y-121050000D03*
X138962500Y-120550000D03*
X138962500Y-120050000D03*
X138962500Y-119550000D03*
X138962500Y-119050000D03*
X138962500Y-118550000D03*
X138962500Y-118050000D03*
X138962500Y-117550000D03*
X138962500Y-117050000D03*
D16*
X137550000Y-115637500D03*
X137050000Y-115637500D03*
X136550000Y-115637500D03*
X136050000Y-115637500D03*
X135550000Y-115637500D03*
X135050000Y-115637500D03*
X134550000Y-115637500D03*
X134050000Y-115637500D03*
X133550000Y-115637500D03*
X133050000Y-115637500D03*
X132550000Y-115637500D03*
X132050000Y-115637500D03*
%TD*%
D17*
%TO.C,R7*%
X117890000Y-119200000D03*
X118910000Y-119200000D03*
%TD*%
D18*
%TO.C,C19*%
X125400000Y-109982500D03*
X125400000Y-110942500D03*
%TD*%
D19*
%TO.C,C26*%
X151400000Y-110280000D03*
X151400000Y-110920000D03*
%TD*%
D20*
%TO.C,R16*%
X108200000Y-126390000D03*
X108200000Y-127410000D03*
%TD*%
D21*
%TO.C,D1*%
X123800000Y-132315000D03*
X123800000Y-133285000D03*
%TD*%
D10*
%TO.C,C30*%
X104520000Y-131728500D03*
X105480000Y-131728500D03*
%TD*%
D22*
%TO.C,C23*%
X116775000Y-115612500D03*
X116775000Y-113712500D03*
%TD*%
D23*
%TO.C,C2*%
X152080000Y-114600000D03*
X151120000Y-114600000D03*
%TD*%
D24*
%TO.C,SW4*%
X128150000Y-131600000D03*
X129850000Y-131600000D03*
D25*
X129000000Y-133675000D03*
X129000000Y-129525000D03*
%TD*%
D17*
%TO.C,R11*%
X104490000Y-114200000D03*
X105510000Y-114200000D03*
%TD*%
D26*
%TO.C,U9*%
X118549999Y-130149999D03*
D27*
X118549999Y-132649999D03*
X121049999Y-132649999D03*
X121049999Y-130149999D03*
%TD*%
D28*
%TO.C,U2*%
X108550000Y-118250000D03*
X108550000Y-118650000D03*
X108550000Y-119050000D03*
X108550000Y-119450000D03*
X108550000Y-119850000D03*
D29*
X109200000Y-120500000D03*
X109600000Y-120500000D03*
X110000000Y-120500000D03*
X110400000Y-120500000D03*
X110800000Y-120500000D03*
D28*
X111450000Y-119850000D03*
X111450000Y-119450000D03*
X111450000Y-119050000D03*
X111450000Y-118650000D03*
X111450000Y-118250000D03*
D29*
X110800000Y-117600000D03*
X110400000Y-117600000D03*
X110000000Y-117600000D03*
X109600000Y-117600000D03*
X109200000Y-117600000D03*
D30*
X109999999Y-119049999D03*
%TD*%
D23*
%TO.C,C3*%
X129480000Y-126800000D03*
X128520000Y-126800000D03*
%TD*%
%TO.C,C4*%
X127280000Y-116800000D03*
X126320000Y-116800000D03*
%TD*%
D31*
%TO.C,U3*%
X121175000Y-110325000D03*
X120525000Y-110325000D03*
X119875000Y-110325000D03*
X119225000Y-110325000D03*
X119225000Y-112600000D03*
X119875000Y-112600000D03*
X120525000Y-112600000D03*
X121175000Y-112600000D03*
%TD*%
D21*
%TO.C,D2*%
X125800000Y-132315000D03*
X125800000Y-133285000D03*
%TD*%
D32*
%TO.C,Q2*%
X112262500Y-130778500D03*
X112262500Y-132678500D03*
X114137500Y-131728500D03*
%TD*%
D18*
%TO.C,C16*%
X109600000Y-122120000D03*
X109600000Y-123080000D03*
%TD*%
D33*
%TO.C,L4*%
X114000000Y-112425000D03*
X114000000Y-115575000D03*
%TD*%
D10*
%TO.C,C20*%
X118920000Y-114462500D03*
X119880000Y-114462500D03*
%TD*%
D32*
%TO.C,Q1*%
X107462500Y-130778500D03*
X107462500Y-132678500D03*
X109337500Y-131728500D03*
%TD*%
D34*
%TO.C,R1*%
X149600000Y-115800000D03*
X148580000Y-115800000D03*
%TD*%
%TO.C,R9*%
X103110000Y-122000000D03*
X102090000Y-122000000D03*
%TD*%
D35*
%TO.C,C15*%
X111400000Y-114880000D03*
X111400000Y-113920000D03*
%TD*%
D20*
%TO.C,R17*%
X113000000Y-126390000D03*
X113000000Y-127410000D03*
%TD*%
D36*
%TO.C,U8*%
X102799999Y-130578499D03*
X101999999Y-130578499D03*
X101199999Y-130578499D03*
X101199999Y-132878499D03*
X101999999Y-132878499D03*
X102799999Y-132878499D03*
D37*
X101999999Y-131728499D03*
%TD*%
D17*
%TO.C,R20*%
X104490000Y-133128500D03*
X105510000Y-133128500D03*
%TD*%
D24*
%TO.C,SW2*%
X136150000Y-131600000D03*
X137850000Y-131600000D03*
D25*
X137000000Y-133675000D03*
X137000000Y-129525000D03*
%TD*%
D35*
%TO.C,C18*%
X107800000Y-114880000D03*
X107800000Y-113920000D03*
%TD*%
D24*
%TO.C,SW3*%
X132150000Y-131600000D03*
X133850000Y-131600000D03*
D25*
X133000000Y-133675000D03*
X133000000Y-129525000D03*
%TD*%
D17*
%TO.C,R6*%
X117890000Y-122000000D03*
X118910000Y-122000000D03*
%TD*%
D18*
%TO.C,C28*%
X141200000Y-110320000D03*
X141200000Y-111280000D03*
%TD*%
D35*
%TO.C,C21*%
X116800000Y-111880000D03*
X116800000Y-110920000D03*
%TD*%
D18*
%TO.C,C29*%
X150200000Y-110320000D03*
X150200000Y-111280000D03*
%TD*%
D38*
%TO.C,J1*%
X148599999Y-126199999D03*
D39*
X151139999Y-126199999D03*
X148599999Y-123659999D03*
X151139999Y-123659999D03*
X148599999Y-121119999D03*
X151139999Y-121119999D03*
X148599999Y-118579999D03*
X151139999Y-118579999D03*
%TD*%
D40*
%TO.C,J2*%
X149799999Y-132799999D03*
D41*
X148799999Y-132799999D03*
X147799999Y-132799999D03*
X146799999Y-132799999D03*
X145799999Y-132799999D03*
%TD*%
D34*
%TO.C,R14*%
X122110000Y-115862500D03*
X121090000Y-115862500D03*
%TD*%
D23*
%TO.C,C7*%
X127280000Y-123600000D03*
X126320000Y-123600000D03*
%TD*%
D20*
%TO.C,R13*%
X125400000Y-112152500D03*
X125400000Y-113172500D03*
%TD*%
D23*
%TO.C,C6*%
X127280000Y-115600000D03*
X126320000Y-115600000D03*
%TD*%
D20*
%TO.C,R19*%
X116800000Y-132090000D03*
X116800000Y-133110000D03*
%TD*%
D23*
%TO.C,C5*%
X127280000Y-118000000D03*
X126320000Y-118000000D03*
%TD*%
%TO.C,C12*%
X103080000Y-123400000D03*
X102120000Y-123400000D03*
%TD*%
D34*
%TO.C,R15*%
X119910000Y-115862500D03*
X118890000Y-115862500D03*
%TD*%
D24*
%TO.C,SW1*%
X140150000Y-131600000D03*
X141850000Y-131600000D03*
D25*
X141000000Y-133675000D03*
X141000000Y-129525000D03*
%TD*%
D42*
%TO.C,Y1*%
X125349999Y-119699999D03*
X125349999Y-121899999D03*
X127049999Y-121899999D03*
X127049999Y-119699999D03*
%TD*%
D43*
%TO.C,R4*%
X125800000Y-131110000D03*
X125800000Y-130090000D03*
%TD*%
D10*
%TO.C,C13*%
X104520000Y-115600000D03*
X105480000Y-115600000D03*
%TD*%
D18*
%TO.C,C27*%
X132200000Y-110320000D03*
X132200000Y-111280000D03*
%TD*%
D43*
%TO.C,R3*%
X123800000Y-131110000D03*
X123800000Y-130090000D03*
%TD*%
D17*
%TO.C,R5*%
X128490000Y-127952000D03*
X129510000Y-127952000D03*
%TD*%
D44*
%TO.C,L1*%
X115600000Y-122775000D03*
X115600000Y-119625000D03*
%TD*%
D11*
%TO.C,U4*%
X130749999Y-110249999D03*
X130249999Y-110249999D03*
X129749999Y-110249999D03*
X129249999Y-110249999D03*
X129249999Y-112149999D03*
X129749999Y-112149999D03*
X130249999Y-112149999D03*
X130749999Y-112149999D03*
D12*
X129999999Y-111199999D03*
%TD*%
D17*
%TO.C,R18*%
X104490000Y-130328500D03*
X105510000Y-130328500D03*
%TD*%
D13*
%TO.C,J4*%
X132000000Y-105000000D03*
D14*
X129499999Y-104999999D03*
%TD*%
D11*
%TO.C,U6*%
X148749999Y-110249999D03*
X148249999Y-110249999D03*
X147749999Y-110249999D03*
X147249999Y-110249999D03*
X147249999Y-112149999D03*
X147749999Y-112149999D03*
X148249999Y-112149999D03*
X148749999Y-112149999D03*
D12*
X147999999Y-111199999D03*
%TD*%
D23*
%TO.C,C22*%
X122080000Y-114462500D03*
X121120000Y-114462500D03*
%TD*%
D44*
%TO.C,L2*%
X105400000Y-125575000D03*
X105400000Y-122425000D03*
%TD*%
D10*
%TO.C,C10*%
X104520000Y-118400000D03*
X105480000Y-118400000D03*
%TD*%
D13*
%TO.C,J6*%
X150000000Y-105000000D03*
D14*
X147499999Y-104999999D03*
%TD*%
D23*
%TO.C,C1*%
X149570000Y-114600000D03*
X148610000Y-114600000D03*
%TD*%
D19*
%TO.C,C24*%
X133400000Y-110280000D03*
X133400000Y-110920000D03*
%TD*%
D23*
%TO.C,C9*%
X103080000Y-126200000D03*
X102120000Y-126200000D03*
%TD*%
D45*
%TO.C,C17*%
X123400000Y-110312500D03*
X123400000Y-112212500D03*
%TD*%
D46*
%TO.C,J3*%
X110499999Y-110699999D03*
X110499999Y-102099999D03*
X110499999Y-107299999D03*
D47*
X103199999Y-101199999D03*
X103199999Y-111099999D03*
%TD*%
D34*
%TO.C,R2*%
X152110000Y-115800000D03*
X151090000Y-115800000D03*
%TD*%
D48*
%TO.C,SW5*%
X114699999Y-104499999D03*
X119399999Y-104499999D03*
X124099999Y-104499999D03*
%TD*%
D34*
%TO.C,R8*%
X103110000Y-124800000D03*
X102090000Y-124800000D03*
%TD*%
D10*
%TO.C,C11*%
X117920000Y-120600000D03*
X118880000Y-120600000D03*
%TD*%
D19*
%TO.C,C25*%
X142400000Y-110280000D03*
X142400000Y-110920000D03*
%TD*%
D18*
%TO.C,C14*%
X111400000Y-122120000D03*
X111400000Y-123080000D03*
%TD*%
D17*
%TO.C,R10*%
X104490000Y-117000000D03*
X105510000Y-117000000D03*
%TD*%
D20*
%TO.C,R12*%
X109600000Y-113890000D03*
X109600000Y-114910000D03*
%TD*%
D49*
%TO.C,U7*%
X109599999Y-125399999D03*
X109599999Y-126399999D03*
X109599999Y-127399999D03*
X111599999Y-127399999D03*
X111599999Y-126399999D03*
X111599999Y-125399999D03*
%TD*%
D44*
%TO.C,L3*%
X102200000Y-117575000D03*
X102200000Y-114425000D03*
%TD*%
M02*
